<?xml version="1.0" encoding="UTF-8" standalone="no"?>
<svg
   xmlns:dc="http://purl.org/dc/elements/1.1/"
   xmlns:cc="http://creativecommons.org/ns#"
   xmlns:rdf="http://www.w3.org/1999/02/22-rdf-syntax-ns#"
   xmlns:svg="http://www.w3.org/2000/svg"
   xmlns="http://www.w3.org/2000/svg"
   xmlns:sodipodi="http://sodipodi.sourceforge.net/DTD/sodipodi-0.dtd"
   xmlns:inkscape="http://www.inkscape.org/namespaces/inkscape"
   width="48"
   height="48"
   viewBox="0 0 12.7 12.7"
   version="1.1"
   id="svg8"
   inkscape:version="1.0.2 (e86c870879, 2021-01-15)"
   sodipodi:docname="ds-letter-2.svg">
  <defs
     id="defs2" />
  <sodipodi:namedview
     id="base"
     pagecolor="#ffffff"
     bordercolor="#666666"
     borderopacity="1.0"
     inkscape:pageopacity="0.0"
     inkscape:pageshadow="2"
     inkscape:zoom="10.125"
     inkscape:cx="24"
     inkscape:cy="24"
     inkscape:document-units="mm"
     inkscape:current-layer="g995"
     inkscape:document-rotation="0"
     showgrid="false"
     showguides="true"
     inkscape:guide-bbox="true"
     inkscape:snap-object-midpoints="false"
     inkscape:object-paths="true"
     inkscape:snap-smooth-nodes="true"
     inkscape:snap-intersection-paths="false"
     inkscape:snap-global="false"
     inkscape:window-width="1366"
     inkscape:window-height="713"
     inkscape:window-x="0"
     inkscape:window-y="25"
     inkscape:window-maximized="1"
     units="px" />
  <metadata
     id="metadata5">
    <rdf:RDF>
      <cc:Work
         rdf:about="">
        <dc:format>image/svg+xml</dc:format>
        <dc:type
           rdf:resource="http://purl.org/dc/dcmitype/StillImage" />
        <dc:title />
      </cc:Work>
    </rdf:RDF>
  </metadata>
  <g
     inkscape:label="Layer 1"
     inkscape:groupmode="layer"
     id="layer1">
    <g
       id="g995"
       transform="matrix(0.06935035,0,0,0.06935035,-0.9317855,-3.9485258)">
      <g
         id="g837">
        <path
           id="path846"
           style="fill:#ffffff;stroke:none;stroke-width:1.14124;stroke-linecap:round;stroke-linejoin:round;paint-order:markers fill stroke"
           d="m 110.76661,157.76251 v 19.99981 h 62.51815 a 30,30 0 0 1 -28.28458,19.99982 30,30 0 0 1 -3.61838,-0.21911 30,30 0 0 1 -19.67115,-10.87066 15.907903,15.907903 0 0 0 -0.0109,0.003 15.907903,15.907903 0 0 0 -0.16537,0.0491 15.907903,15.907903 0 0 0 -0.16484,0.0501 15.907903,15.907903 0 0 0 -0.16485,0.0522 15.907903,15.907903 0 0 0 -0.16381,0.0543 15.907903,15.907903 0 0 0 -0.1633,0.0553 15.907903,15.907903 0 0 0 -0.16227,0.0579 15.907903,15.907903 0 0 0 -0.16226,0.0589 15.907903,15.907903 0 0 0 -0.16123,0.0615 15.907903,15.907903 0 0 0 -0.16072,0.0625 15.907903,15.907903 0 0 0 -0.16019,0.0646 15.907903,15.907903 0 0 0 -0.15917,0.0661 15.907903,15.907903 0 0 0 -0.15864,0.0682 15.907903,15.907903 0 0 0 -0.15761,0.0698 15.907903,15.907903 0 0 0 -0.1571,0.0713 15.907903,15.907903 0 0 0 -0.15606,0.0729 15.907903,15.907903 0 0 0 -0.15555,0.0749 15.907903,15.907903 0 0 0 -0.15451,0.0765 15.907903,15.907903 0 0 0 -0.154,0.078 15.907903,15.907903 0 0 0 -0.15296,0.0796 15.907903,15.907903 0 0 0 -0.15193,0.0817 15.907903,15.907903 0 0 0 -0.15141,0.0832 15.907903,15.907903 0 0 0 -0.15038,0.0847 15.907903,15.907903 0 0 0 -0.14934,0.0863 15.907903,15.907903 0 0 0 -0.14832,0.0878 15.907903,15.907903 0 0 0 -0.14727,0.0899 15.907903,15.907903 0 0 0 -0.14677,0.0909 15.907903,15.907903 0 0 0 -0.1452,0.0925 15.907903,15.907903 0 0 0 -0.1447,0.0946 15.907903,15.907903 0 0 0 -0.14314,0.0961 15.907903,15.907903 0 0 0 -0.14263,0.0971 15.907903,15.907903 0 0 0 -0.14108,0.0992 15.907903,15.907903 0 0 0 -0.14004,0.10025 15.907903,15.907903 0 0 0 -0.13953,0.10232 15.907903,15.907903 0 0 0 -0.13797,0.10335 15.907903,15.907903 0 0 0 -0.13643,0.1049 15.907903,15.907903 0 0 0 -0.13591,0.10646 15.907903,15.907903 0 0 0 -0.13436,0.108 15.907903,15.907903 0 0 0 -0.13384,0.10956 15.907903,15.907903 0 0 0 -0.13177,0.11058 15.907903,15.907903 0 0 0 -0.13126,0.11266 15.907903,15.907903 0 0 0 -0.12971,0.11369 15.907903,15.907903 0 0 0 -0.12867,0.11472 15.907903,15.907903 0 0 0 -0.12713,0.11679 15.907903,15.907903 0 0 0 -0.12609,0.11782 15.907903,15.907903 0 0 0 -0.12454,0.11885 15.907903,15.907903 0 0 0 -0.1235,0.12093 15.907903,15.907903 0 0 0 -0.12196,0.12195 15.907903,15.907903 0 0 0 -0.12092,0.12299 15.907903,15.907903 0 0 0 -0.11938,0.12454 15.907903,15.907903 0 0 0 -0.11782,0.12558 15.907903,15.907903 0 0 0 -0.11679,0.12712 15.907903,15.907903 0 0 0 -0.11524,0.12816 15.907903,15.907903 0 0 0 -0.1142,0.12971 15.907903,15.907903 0 0 0 -0.11214,0.13074 15.907903,15.907903 0 0 0 -0.1111,0.13229 15.907903,15.907903 0 0 0 -0.10956,0.13333 15.907903,15.907903 0 0 0 -0.10852,0.13436 15.907903,15.907903 0 0 0 -0.10645,0.13539 15.907903,15.907903 0 0 0 -0.10542,0.13642 15.907903,15.907903 0 0 0 -0.10387,0.13798 15.907903,15.907903 0 0 0 -0.10232,0.13901 15.907903,15.907903 0 0 0 -0.10077,0.14004 15.907903,15.907903 0 0 0 -0.0992,0.14108 15.907903,15.907903 0 0 0 -0.0977,0.14211 15.907903,15.907903 0 0 0 -0.0961,0.14314 15.907903,15.907903 0 0 0 -0.0946,0.14469 15.907903,15.907903 0 0 0 -0.093,0.14522 15.907903,15.907903 0 0 0 -0.0909,0.14624 15.907903,15.907903 0 0 0 -0.0899,0.14728 15.907903,15.907903 0 0 0 -0.0884,0.14831 15.907903,15.907903 0 0 0 -0.0868,0.14935 15.907903,15.907903 0 0 0 -0.0847,0.14986 15.907903,15.907903 0 0 0 -0.0832,0.15089 15.907903,15.907903 0 0 0 -0.0816,0.15193 15.907903,15.907903 0 0 0 -0.0801,0.15296 15.907903,15.907903 0 0 0 -0.0785,0.15348 15.907903,15.907903 0 0 0 -0.077,0.15451 15.907903,15.907903 0 0 0 -0.0749,0.15555 15.907903,15.907903 0 0 0 -0.0734,0.15606 15.907903,15.907903 0 0 0 -0.0713,0.1571 15.907903,15.907903 0 0 0 -0.0703,0.15761 15.907903,15.907903 0 0 0 -0.0682,0.15865 15.907903,15.907903 0 0 0 -0.0667,0.15916 15.907903,15.907903 0 0 0 -0.0646,0.15968 15.907903,15.907903 0 0 0 -0.063,0.16072 15.907903,15.907903 0 0 0 -0.0615,0.16123 15.907903,15.907903 0 0 0 -0.0594,0.16174 15.907903,15.907903 0 0 0 -0.0579,0.16279 15.907903,15.907903 0 0 0 -0.0558,0.16278 15.907903,15.907903 0 0 0 -0.0543,0.16381 15.907903,15.907903 0 0 0 -0.0527,0.16433 15.907903,15.907903 0 0 0 -0.0507,0.16536 15.907903,15.907903 0 0 0 -0.0486,0.16537 15.907903,15.907903 0 0 0 -0.047,0.16588 15.907903,15.907903 0 0 0 -0.0455,0.1664 15.907903,15.907903 0 0 0 -0.0434,0.16691 15.907903,15.907903 0 0 0 -0.0419,0.16744 15.907903,15.907903 0 0 0 -0.0398,0.16794 15.907903,15.907903 0 0 0 -0.0382,0.16795 15.907903,15.907903 0 0 0 -0.0362,0.16899 15.907903,15.907903 0 0 0 -0.0341,0.16898 15.907903,15.907903 0 0 0 -0.0326,0.1695 15.907903,15.907903 0 0 0 -0.031,0.16949 15.907903,15.907903 0 0 0 -0.0289,0.17002 15.907903,15.907903 0 0 0 -0.0269,0.17053 15.907903,15.907903 0 0 0 -0.0253,0.17053 15.907903,15.907903 0 0 0 -0.0233,0.17105 15.907903,15.907903 0 0 0 -0.0212,0.17105 15.907903,15.907903 0 0 0 -0.0196,0.17157 15.907903,15.907903 0 0 0 -0.0176,0.17156 15.907903,15.907903 0 0 0 -0.016,0.17209 15.907903,15.907903 0 0 0 -0.0139,0.17156 15.907903,15.907903 0 0 0 -0.0124,0.17208 15.907903,15.907903 0 0 0 -0.0103,0.1726 15.907903,15.907903 0 0 0 -0.008,0.17209 15.907903,15.907903 0 0 0 -0.007,0.17259 15.907903,15.907903 0 0 0 -0.005,0.17209 15.907903,15.907903 0 0 0 -0.003,0.1726 15.907903,15.907903 0 0 0 -0.001,0.1726 15.907903,15.907903 0 0 0 5.3e-4,0.14572 15.907903,15.907903 0 0 0 0.003,0.1726 15.907903,15.907903 0 0 0 0.005,0.17209 15.907903,15.907903 0 0 0 0.006,0.1726 15.907903,15.907903 0 0 0 0.008,0.17259 15.907903,15.907903 0 0 0 0.01,0.17209 15.907903,15.907903 0 0 0 0.0119,0.17208 15.907903,15.907903 0 0 0 0.0134,0.17208 15.907903,15.907903 0 0 0 0.016,0.17157 15.907903,15.907903 0 0 0 0.0171,0.17156 15.907903,15.907903 0 0 0 0.0114,0.0972 50,50 0 0 0 22.69939,12.54445 50,50 0 0 0 12.0065,1.46296 50,50 0 0 0 48.98977,-40.00014 50,50 0 0 0 0.008,-0.0377 50,50 0 0 0 0.0599,-0.29972 50,50 0 0 0 0.0584,-0.30024 50,50 0 0 0 0.0563,-0.30076 50,50 0 0 0 0.0543,-0.30075 50,50 0 0 0 0.0527,-0.30128 50,50 0 0 0 0.0512,-0.30179 50,50 0 0 0 0.0486,-0.30179 50,50 0 0 0 0.0475,-0.30231 50,50 0 0 0 0.045,-0.3023 50,50 0 0 0 0.0434,-0.30283 50,50 0 0 0 0.0419,-0.30282 50,50 0 0 0 0.0398,-0.30334 50,50 0 0 0 0.0377,-0.30386 50,50 0 0 0 0.0357,-0.30334 50,50 0 0 0 0.0346,-0.30437 50,50 0 0 0 0.032,-0.30386 50,50 0 0 0 0.0305,-0.30438 50,50 0 0 0 0.0284,-0.30437 50,50 0 0 0 0.0269,-0.30489 50,50 0 0 0 0.0248,-0.30489 50,50 0 0 0 0.0227,-0.30489 50,50 0 0 0 0.0212,-0.30489 50,50 0 0 0 0.0191,-0.30541 50,50 0 0 0 0.0176,-0.30541 50,50 0 0 0 0.0155,-0.30541 50,50 0 0 0 0.0139,-0.3054 50,50 0 0 0 0.0114,-0.30593 50,50 0 0 0 0.01,-0.30541 50,50 0 0 0 0.008,-0.30592 50,50 0 0 0 0.006,-0.30593 50,50 0 0 0 0.004,-0.3054 50,50 0 0 0 0.003,-0.30593 50,50 0 0 0 5.3e-4,-0.24236 50,50 0 0 0 -0.001,-0.30592 50,50 0 0 0 -0.003,-0.30593 50,50 0 0 0 -0.005,-0.30541 50,50 0 0 0 -0.007,-0.30592 50,50 0 0 0 -0.008,-0.30593 50,50 0 0 0 -0.0103,-0.3054 50,50 0 0 0 -0.0124,-0.30593 50,50 0 0 0 -0.0139,-0.30541 50,50 0 0 0 -0.016,-0.3054 50,50 0 0 0 -0.0176,-0.30541 50,50 0 0 0 -0.0196,-0.30541 50,50 0 0 0 -0.0217,-0.30489 50,50 0 0 0 -0.0233,-0.30489 50,50 0 0 0 -0.0253,-0.30489 50,50 0 0 0 -0.0269,-0.30437 50,50 0 0 0 -0.0289,-0.3049 50,50 0 0 0 -0.031,-0.30385 50,50 0 0 0 -0.0326,-0.30438 50,50 0 0 0 -0.0346,-0.30385 50,50 0 0 0 -0.0362,-0.30386 50,50 0 0 0 -0.0382,-0.30334 50,50 0 0 0 -0.0403,-0.30334 50,50 0 0 0 -0.0419,-0.30283 50,50 0 0 0 -0.0439,-0.30282 50,50 0 0 0 -0.0455,-0.30231 50,50 0 0 0 -0.0475,-0.30179 50,50 0 0 0 -0.0496,-0.30231 50,50 0 0 0 -0.0512,-0.30127 50,50 0 0 0 -0.0532,-0.30127 50,50 0 0 0 -0.0548,-0.30076 50,50 0 0 0 -0.0569,-0.30076 50,50 0 0 0 -0.0584,-0.30024 50,50 0 0 0 -0.0553,-0.27492 h -20.70519 z" />
        <path
           id="path987"
           style="fill:#3dcfd3;stroke:none;stroke-width:4.31335;stroke-linecap:round;stroke-linejoin:round;paint-order:markers fill stroke;fill-opacity:1"
           d="m 245.67188,445.08398 -0.004,0.002 A 188.97638,188.97638 0 0 0 56.691406,634.0625 188.97638,188.97638 0 0 0 245.66797,823.03906 a 188.97638,188.97638 0 0 0 151.18164,-75.59375 188.97638,188.97638 0 0 0 0.28125,-0.37304 188.97638,188.97638 0 0 0 0.68945,-0.92969 188.97638,188.97638 0 0 0 0.68164,-0.93164 188.97638,188.97638 0 0 0 0.67774,-0.9375 188.97638,188.97638 0 0 0 0.66992,-0.94141 188.97638,188.97638 0 0 0 0.66601,-0.94531 188.97638,188.97638 0 0 0 0.66016,-0.94922 188.97638,188.97638 0 0 0 0.6543,-0.95312 188.97638,188.97638 0 0 0 0.64844,-0.95704 188.97638,188.97638 0 0 0 0.64062,-0.96093 188.97638,188.97638 0 0 0 0.63672,-0.96485 188.97638,188.97638 0 0 0 0.63086,-0.96875 188.97638,188.97638 0 0 0 0.625,-0.97265 188.97638,188.97638 0 0 0 0.61719,-0.97657 188.97638,188.97638 0 0 0 0.61328,-0.98047 188.97638,188.97638 0 0 0 0.60547,-0.98437 188.97638,188.97638 0 0 0 0.60156,-0.98828 188.97638,188.97638 0 0 0 0.59375,-0.99219 188.97638,188.97638 0 0 0 0.58789,-0.99414 188.97638,188.97638 0 0 0 0.58398,-0.99805 188.97638,188.97638 0 0 0 0.57618,-1.00195 188.97638,188.97638 0 0 0 0.56836,-1.00586 188.97638,188.97638 0 0 0 0.56445,-1.00976 188.97638,188.97638 0 0 0 0.55859,-1.01172 188.97638,188.97638 0 0 0 0.55078,-1.01758 188.97638,188.97638 0 0 0 0.54492,-1.01953 188.97638,188.97638 0 0 0 0.53907,-1.02149 188.97638,188.97638 0 0 0 0.5332,-1.02539 188.97638,188.97638 0 0 0 0.52539,-1.02929 188.97638,188.97638 0 0 0 0.51953,-1.03321 188.97638,188.97638 0 0 0 0.51563,-1.03515 188.97638,188.97638 0 0 0 0.50586,-1.03907 188.97638,188.97638 0 0 0 0.50195,-1.04101 188.97638,188.97638 0 0 0 0.49414,-1.04492 188.97638,188.97638 0 0 0 0.48828,-1.04883 188.97638,188.97638 0 0 0 0.48242,-1.05078 188.97638,188.97638 0 0 0 0.47461,-1.05274 188.97638,188.97638 0 0 0 0.46875,-1.05664 188.97638,188.97638 0 0 0 0.46289,-1.05859 188.97638,188.97638 0 0 0 0.45704,-1.0625 188.97638,188.97638 0 0 0 0.44921,-1.06641 188.97638,188.97638 0 0 0 0.44336,-1.0664 188.97638,188.97638 0 0 0 0.43555,-1.07032 188.97638,188.97638 0 0 0 0.42969,-1.07422 188.97638,188.97638 0 0 0 0.42383,-1.07421 188.97638,188.97638 0 0 0 0.41601,-1.07813 188.97638,188.97638 0 0 0 0.41016,-1.08203 188.97638,188.97638 0 0 0 0.40429,-1.08203 188.97638,188.97638 0 0 0 0.39649,-1.08594 188.97638,188.97638 0 0 0 0.39062,-1.08789 188.97638,188.97638 0 0 0 0.38282,-1.0918 188.97638,188.97638 0 0 0 0.37695,-1.09179 188.97638,188.97638 0 0 0 0.37109,-1.09571 188.97638,188.97638 0 0 0 0.36328,-1.09765 188.97638,188.97638 0 0 0 0.35547,-1.09961 188.97638,188.97638 0 0 0 0.35157,-1.10156 188.97638,188.97638 0 0 0 0.34179,-1.10352 188.97638,188.97638 0 0 0 0.33789,-1.10547 188.97638,188.97638 0 0 0 0.33008,-1.10742 188.97638,188.97638 0 0 0 0.32227,-1.11133 188.97638,188.97638 0 0 0 0.3164,-1.11133 188.97638,188.97638 0 0 0 0.3086,-1.11328 188.97638,188.97638 0 0 0 0.30273,-1.11719 188.97638,188.97638 0 0 0 0.29688,-1.11718 188.97638,188.97638 0 0 0 0.28711,-1.11914 188.97638,188.97638 0 0 0 0.2832,-1.1211 188.97638,188.97638 0 0 0 0.27539,-1.12304 188.97638,188.97638 0 0 0 0.26758,-1.12305 188.97638,188.97638 0 0 0 0.26172,-1.12695 188.97638,188.97638 0 0 0 0.2539,-1.12696 188.97638,188.97638 0 0 0 0.24805,-1.1289 188.97638,188.97638 0 0 0 0.24023,-1.13086 188.97638,188.97638 0 0 0 0.23438,-1.13282 188.97638,188.97638 0 0 0 0.22656,-1.13281 188.97638,188.97638 0 0 0 0.2207,-1.13476 188.97638,188.97638 0 0 0 0.21289,-1.13672 188.97638,188.97638 0 0 0 0.20508,-1.13672 188.97638,188.97638 0 0 0 0.19922,-1.13867 188.97638,188.97638 0 0 0 0.19336,-1.14063 188.97638,188.97638 0 0 0 0.1836,-1.14062 188.97638,188.97638 0 0 0 0.17968,-1.14258 188.97638,188.97638 0 0 0 0.17188,-1.14258 188.97638,188.97638 0 0 0 0.16406,-1.14453 188.97638,188.97638 0 0 0 0.1582,-1.14453 188.97638,188.97638 0 0 0 0.15039,-1.14649 188.97638,188.97638 0 0 0 0.14258,-1.14843 188.97638,188.97638 0 0 0 0.13477,-1.14649 188.97638,188.97638 0 0 0 0.13086,-1.15039 188.97638,188.97638 0 0 0 0.12109,-1.14844 188.97638,188.97638 0 0 0 0.11523,-1.15039 188.97638,188.97638 0 0 0 0.10743,-1.15039 188.97638,188.97638 0 0 0 0.10156,-1.15234 188.97638,188.97638 0 0 0 0.0937,-1.15235 188.97638,188.97638 0 0 0 0.084,-1.15234 188.97638,188.97638 0 0 0 0.082,-1.15234 188.97638,188.97638 0 0 0 0.0703,-1.1543 188.97638,188.97638 0 0 0 0.0684,-1.1543 188.97638,188.97638 0 0 0 0.0586,-1.15429 188.97638,188.97638 0 0 0 0.0488,-1.1543 188.97638,188.97638 0 0 0 0.0449,-1.15625 188.97638,188.97638 0 0 0 0.0391,-1.1543 188.97638,188.97638 0 0 0 0.0293,-1.15625 188.97638,188.97638 0 0 0 0.0234,-1.15625 188.97638,188.97638 0 0 0 0.0156,-1.15429 188.97638,188.97638 0 0 0 0.01,-1.15625 188.97638,188.97638 0 0 0 0.004,-0.59375 113.38583,113.38583 0 0 1 0,-0.32227 113.38583,113.38583 0 0 1 113.38672,-113.38672 113.38583,113.38583 0 0 1 22.80664,2.31836 113.38583,113.38583 0 0 1 69.7461,45.56641 60.124358,60.124358 0 0 0 0.40234,-0.0762 60.124358,60.124358 0 0 0 0.63867,-0.12891 60.124358,60.124358 0 0 0 0.63867,-0.13672 60.124358,60.124358 0 0 0 0.63672,-0.14258 60.124358,60.124358 0 0 0 0.63477,-0.15039 60.124358,60.124358 0 0 0 0.63281,-0.15625 60.124358,60.124358 0 0 0 0.63086,-0.16211 60.124358,60.124358 0 0 0 0.62891,-0.16992 60.124358,60.124358 0 0 0 0.62695,-0.17773 60.124358,60.124358 0 0 0 0.62695,-0.1836 60.124358,60.124358 0 0 0 0.62305,-0.1914 60.124358,60.124358 0 0 0 0.62109,-0.19727 60.124358,60.124358 0 0 0 0.61915,-0.20312 60.124358,60.124358 0 0 0 0.61718,-0.21094 60.124358,60.124358 0 0 0 0.61524,-0.2168 60.124358,60.124358 0 0 0 0.61132,-0.22461 60.124358,60.124358 0 0 0 0.61133,-0.23047 60.124358,60.124358 0 0 0 0.60743,-0.23828 60.124358,60.124358 0 0 0 0.60351,-0.24414 60.124358,60.124358 0 0 0 0.60352,-0.25 60.124358,60.124358 0 0 0 0.59765,-0.25586 60.124358,60.124358 0 0 0 0.59766,-0.26367 60.124358,60.124358 0 0 0 0.59375,-0.26953 60.124358,60.124358 0 0 0 0.58984,-0.27735 60.124358,60.124358 0 0 0 0.58789,-0.28125 60.124358,60.124358 0 0 0 0.58399,-0.28906 60.124358,60.124358 0 0 0 0.58203,-0.29687 60.124358,60.124358 0 0 0 0.57812,-0.30078 60.124358,60.124358 0 0 0 0.57422,-0.3086 60.124358,60.124358 0 0 0 0.57227,-0.3125 60.124358,60.124358 0 0 0 0.5664,-0.32226 60.124358,60.124358 0 0 0 0.56446,-0.32813 60.124358,60.124358 0 0 0 0.5625,-0.33203 60.124358,60.124358 0 0 0 0.55664,-0.33789 60.124358,60.124358 0 0 0 0.55273,-0.3457 60.124358,60.124358 0 0 0 0.55078,-0.34961 60.124358,60.124358 0 0 0 0.54493,-0.35743 60.124358,60.124358 0 0 0 0.54296,-0.36132 60.124358,60.124358 0 0 0 0.53711,-0.36914 60.124358,60.124358 0 0 0 0.53516,-0.37305 60.124358,60.124358 0 0 0 0.5293,-0.38086 60.124358,60.124358 0 0 0 0.52539,-0.38477 60.124358,60.124358 0 0 0 0.52148,-0.39062 60.124358,60.124358 0 0 0 0.51758,-0.39844 60.124358,60.124358 0 0 0 0.51367,-0.40234 60.124358,60.124358 0 0 0 0.50781,-0.4082 60.124358,60.124358 0 0 0 0.50391,-0.41211 60.124358,60.124358 0 0 0 0.5,-0.41993 60.124358,60.124358 0 0 0 0.49609,-0.42382 60.124358,60.124358 0 0 0 0.49024,-0.42969 60.124358,60.124358 0 0 0 0.48437,-0.43555 60.124358,60.124358 0 0 0 0.48243,-0.43945 60.124358,60.124358 0 0 0 0.47461,-0.44531 60.124358,60.124358 0 0 0 0.47265,-0.45118 60.124358,60.124358 0 0 0 0.4668,-0.45507 60.124358,60.124358 0 0 0 0.46094,-0.46094 60.124358,60.124358 0 0 0 0.45703,-0.4668 60.124358,60.124358 0 0 0 0.45117,-0.46875 60.124358,60.124358 0 0 0 0.44531,-0.47656 60.124358,60.124358 0 0 0 0.44141,-0.48047 60.124358,60.124358 0 0 0 0.43554,-0.48437 60.124358,60.124358 0 0 0 0.42969,-0.49024 60.124358,60.124358 0 0 0 0.42578,-0.49414 60.124358,60.124358 0 0 0 0.41992,-0.49805 60.124358,60.124358 0 0 0 0.41407,-0.5039 60.124358,60.124358 0 0 0 0.41015,-0.50782 60.124358,60.124358 0 0 0 0.40235,-0.51171 60.124358,60.124358 0 0 0 0.39843,-0.51758 60.124358,60.124358 0 0 0 0.39063,-0.52149 60.124358,60.124358 0 0 0 0.38672,-0.52539 60.124358,60.124358 0 0 0 0.38086,-0.52929 60.124358,60.124358 0 0 0 0.37305,-0.53321 60.124358,60.124358 0 0 0 0.37109,-0.53711 60.124358,60.124358 0 0 0 0.36328,-0.54101 60.124358,60.124358 0 0 0 0.35742,-0.54492 60.124358,60.124358 0 0 0 0.35156,-0.54883 60.124358,60.124358 0 0 0 0.34571,-0.55469 60.124358,60.124358 0 0 0 0.33984,-0.55664 60.124358,60.124358 0 0 0 0.33594,-0.55859 60.124358,60.124358 0 0 0 0.32617,-0.56446 60.124358,60.124358 0 0 0 0.32227,-0.56836 60.124358,60.124358 0 0 0 0.31445,-0.57031 60.124358,60.124358 0 0 0 0.30664,-0.57422 60.124358,60.124358 0 0 0 0.30273,-0.57812 60.124358,60.124358 0 0 0 0.29688,-0.58008 60.124358,60.124358 0 0 0 0.28906,-0.58399 60.124358,60.124358 0 0 0 0.28711,-0.58789 60.124358,60.124358 0 0 0 0.27735,-0.58984 60.124358,60.124358 0 0 0 0.26953,-0.59375 60.124358,60.124358 0 0 0 0.26562,-0.5957 60.124358,60.124358 0 0 0 0.25781,-0.59766 60.124358,60.124358 0 0 0 0.24805,-0.60156 60.124358,60.124358 0 0 0 0.24609,-0.60547 60.124358,60.124358 0 0 0 0.24024,-0.60547 60.124358,60.124358 0 0 0 0.23047,-0.60937 60.124358,60.124358 0 0 0 0.22656,-0.61329 60.124358,60.124358 0 0 0 0.2168,-0.61328 60.124358,60.124358 0 0 0 0.21289,-0.61718 60.124358,60.124358 0 0 0 0.20508,-0.61915 60.124358,60.124358 0 0 0 0.19726,-0.62109 60.124358,60.124358 0 0 0 0.19141,-0.62305 60.124358,60.124358 0 0 0 0.18554,-0.625 60.124358,60.124358 0 0 0 0.17774,-0.62695 60.124358,60.124358 0 0 0 0.17187,-0.63086 60.124358,60.124358 0 0 0 0.16407,-0.63086 60.124358,60.124358 0 0 0 0.1582,-0.63281 60.124358,60.124358 0 0 0 0.15039,-0.63281 60.124358,60.124358 0 0 0 0.14258,-0.63672 60.124358,60.124358 0 0 0 0.13867,-0.63672 60.124358,60.124358 0 0 0 0.12891,-0.64063 60.124358,60.124358 0 0 0 0.12304,-0.63867 60.124358,60.124358 0 0 0 0.11524,-0.64257 60.124358,60.124358 0 0 0 0.10937,-0.64258 60.124358,60.124358 0 0 0 0.10352,-0.64453 60.124358,60.124358 0 0 0 0.0937,-0.64454 60.124358,60.124358 0 0 0 0.0879,-0.64648 60.124358,60.124358 0 0 0 0.082,-0.64648 60.124358,60.124358 0 0 0 0.0742,-0.64844 60.124358,60.124358 0 0 0 0.0664,-0.64844 60.124358,60.124358 0 0 0 0.0606,-0.64844 60.124358,60.124358 0 0 0 0.0527,-0.65039 60.124358,60.124358 0 0 0 0.0469,-0.65039 60.124358,60.124358 0 0 0 0.0371,-0.65039 60.124358,60.124358 0 0 0 0.0332,-0.65234 60.124358,60.124358 0 0 0 0.0234,-0.65039 60.124358,60.124358 0 0 0 0.0195,-0.65235 60.124358,60.124358 0 0 0 0.01,-0.65234 60.124358,60.124358 0 0 0 0.004,-0.65234 60.124358,60.124358 0 0 0 -0.004,-0.55079 60.124358,60.124358 0 0 0 -0.002,-0.11132 188.97638,188.97638 0 0 0 -83.66211,-54.65821 188.97638,188.97638 0 0 0 -57.84961,-9.07422 A 188.97638,188.97638 0 0 0 396.8538,520.6777 188.97638,188.97638 0 0 0 245.67216,445.08395 Z m -0.004,75.5918 A 113.38583,113.38583 0 0 1 359.05469,634.0625 113.38583,113.38583 0 0 1 245.66797,747.44727 113.38583,113.38583 0 0 1 132.28125,634.0625 113.38583,113.38583 0 0 1 245.66797,520.67578 Z"
           transform="scale(0.26458333)" />
        <path
           style="fill:#ffffff;stroke:none;stroke-width:1.14124;stroke-linecap:round;stroke-linejoin:round;paint-order:markers fill stroke"
           d="m 104.99984,79.237561 c -0.0384,1.14e-4 -0.0768,5.29e-4 -0.11524,0.0011 -0.0455,5.3e-4 -0.091,0.0013 -0.13643,0.0026 -0.0457,0.0011 -0.0913,0.0024 -0.13694,0.0041 -0.0455,0.0019 -0.091,0.0038 -0.13643,0.0062 -0.0457,0.0024 -0.0913,0.0052 -0.13694,0.0083 -0.0455,0.003 -0.091,0.0062 -0.13643,0.0098 -0.0453,0.0037 -0.0906,0.0076 -0.1359,0.01188 -0.0455,0.0043 -0.091,0.009 -0.13643,0.01394 -0.0453,0.0049 -0.0906,0.01003 -0.13591,0.0155 -0.0452,0.0055 -0.0903,0.0114 -0.13539,0.01757 -0.0452,0.0061 -0.0903,0.01244 -0.1354,0.01913 -0.0452,0.0068 -0.0903,0.01381 -0.13539,0.02119 -0.045,0.0073 -0.09,0.01484 -0.13487,0.02273 -0.0448,0.008 -0.0896,0.01625 -0.13436,0.02479 -0.0447,0.0087 -0.0893,0.01762 -0.13384,0.02687 -0.0447,0.0092 -0.0893,0.01865 -0.13384,0.02842 -0.0445,0.0099 -0.089,0.02003 -0.13333,0.03049 -0.0445,0.01037 -0.089,0.02106 -0.13332,0.03204 -0.0442,0.0109 -0.0883,0.02209 -0.1323,0.03359 -0.0442,0.01175 -0.0883,0.02381 -0.13229,0.03617 -0.0438,0.01212 -0.0876,0.0245 -0.13126,0.03721 -0.0438,0.01296 -0.0876,0.02622 -0.13125,0.03979 -0.0435,0.01331 -0.0869,0.02692 -0.13023,0.04082 -0.0433,0.014 -0.0866,0.0283 -0.12971,0.04289 -0.0432,0.01469 -0.0862,0.02968 -0.12919,0.04496 -0.043,0.01521 -0.0859,0.03071 -0.12867,0.04651 -0.0428,0.01572 -0.0855,0.03175 -0.12816,0.04806 -0.0427,0.01643 -0.0852,0.03313 -0.12764,0.05013 -0.0423,0.01693 -0.0845,0.03416 -0.12661,0.05168 -0.042,0.01746 -0.0838,0.0352 -0.12557,0.05323 -0.0418,0.01815 -0.0835,0.03658 -0.12506,0.0553 -0.0417,0.01868 -0.0832,0.03761 -0.12454,0.05684 -0.0413,0.01918 -0.0825,0.03866 -0.12351,0.05839 -0.0411,0.01987 -0.0821,0.04003 -0.12298,0.06046 -0.0408,0.0204 -0.0814,0.04106 -0.12196,0.06201 -0.0404,0.0209 -0.0808,0.0421 -0.12092,0.06356 -0.0403,0.02143 -0.0804,0.04313 -0.12041,0.06511 -0.0399,0.02196 -0.0797,0.04417 -0.11937,0.06667 -0.0396,0.02265 -0.07906,0.04555 -0.118343,0.06873 -0.03926,0.02299 -0.07836,0.04624 -0.117306,0.06976 -0.03909,0.02368 -0.07803,0.04762 -0.116787,0.07183 -0.03858,0.02421 -0.07699,0.04866 -0.115239,0.07338 -0.03841,0.02471 -0.07665,0.04969 -0.114721,0.07493 -0.0379,0.02524 -0.07562,0.05073 -0.113172,0.07648 -0.03773,0.02574 -0.07528,0.05176 -0.112655,0.07803 -0.03721,0.02611 -0.07425,0.05246 -0.111104,0.07906 -0.03688,0.02679 -0.07357,0.05384 -0.110072,0.08113 -0.03671,0.02731 -0.07323,0.05487 -0.109553,0.08268 -0.03602,0.02766 -0.07185,0.05557 -0.107487,0.08371 -0.03585,0.02835 -0.07151,0.05694 -0.106971,0.08578 -0.03534,0.0287 -0.07048,0.05764 -0.105418,0.08682 -0.03517,0.02922 -0.07014,0.05867 -0.104905,0.08836 -0.03448,0.02974 -0.06876,0.05971 -0.102835,0.08992 -0.03431,0.03008 -0.06842,0.0604 -0.10232,0.09095 -0.03363,0.0306 -0.06705,0.0614 -0.100253,0.0925 -0.03346,0.0311 -0.0667,0.06255 -0.09973,0.09405 -0.03294,0.0315 -0.06567,0.06319 -0.09818,0.09509 -0.03243,0.032 -0.06465,0.06424 -0.09664,0.09663 -0.03209,0.0325 -0.06396,0.06518 -0.0956,0.09819 -0.03158,0.0329 -0.06293,0.06592 -0.09405,0.09922 -0.03123,0.0332 -0.06224,0.0666 -0.09302,0.100251 -0.03055,0.0337 -0.06087,0.0677 -0.09095,0.101804 -0.03038,0.0341 -0.06052,0.0684 -0.09043,0.102835 -0.02969,0.0346 -0.05915,0.06939 -0.08837,0.104387 -0.02935,0.0349 -0.05846,0.0701 -0.08733,0.10542 -0.02867,0.0353 -0.05708,0.0708 -0.08526,0.106453 -0.02832,0.0358 -0.0564,0.07181 -0.08423,0.108005 -0.02798,0.0362 -0.05572,0.0725 -0.0832,0.109038 -0.02729,0.0365 -0.05434,0.0732 -0.08113,0.110069 -0.02678,0.0369 -0.05331,0.07389 -0.07958,0.111104 -0.02625,0.0372 -0.05228,0.0746 -0.07803,0.112138 -0.02593,0.0375 -0.05159,0.0753 -0.077,0.113173 -0.02524,0.0379 -0.05021,0.076 -0.07493,0.114205 -0.02471,0.0383 -0.04918,0.0767 -0.07338,0.115236 -0.02437,0.0388 -0.0485,0.0777 -0.07235,0.11679 -0.02368,0.0389 -0.04712,0.078 -0.07028,0.117306 -0.02318,0.0391 -0.04609,0.07839 -0.06873,0.117821 -0.02268,0.0396 -0.04506,0.0794 -0.06718,0.119372 -0.02199,0.0398 -0.04368,0.0798 -0.06511,0.119891 -0.02164,0.0402 -0.043,0.0805 -0.06408,0.120923 -0.02096,0.0405 -0.04162,0.08119 -0.06201,0.121957 -0.02043,0.0409 -0.04059,0.0819 -0.06046,0.122988 -0.01992,0.041 -0.03955,0.08221 -0.05891,0.123508 -0.01939,0.0412 -0.03852,0.08259 -0.05736,0.124023 -0.01873,0.0416 -0.03715,0.08321 -0.05529,0.125058 -0.0182,0.0417 -0.03611,0.08359 -0.05375,0.125572 -0.0177,0.0421 -0.03508,0.08431 -0.05219,0.126608 -0.01701,0.0423 -0.03371,0.08459 -0.05013,0.127124 -0.01648,0.0426 -0.03268,0.0853 -0.04857,0.128157 -0.0158,0.0428 -0.0313,0.08571 -0.04651,0.128674 -0.01527,0.043 -0.03027,0.08601 -0.04496,0.129191 -0.01476,0.0431 -0.02924,0.0864 -0.04341,0.129709 -0.01408,0.0433 -0.02786,0.08669 -0.04134,0.130226 -0.01357,0.0435 -0.02683,0.0871 -0.03979,0.130741 -0.01286,0.0438 -0.02545,0.08781 -0.03772,0.131773 -0.01236,0.0438 -0.02442,0.0878 -0.03617,0.131776 -0.01167,0.044 -0.02305,0.0881 -0.03411,0.132291 -0.01117,0.0442 -0.02201,0.0885 -0.03256,0.132808 -0.01048,0.0444 -0.02064,0.08881 -0.03049,0.133326 -0.01,0.0446 -0.01961,0.0892 -0.02894,0.133842 -0.0093,0.0447 -0.01823,0.0895 -0.02687,0.134358 -0.0086,0.0447 -0.01685,0.0895 -0.02479,0.134358 -0.0081,0.0449 -0.0158,0.0899 -0.02326,0.134877 -0.0075,0.0449 -0.01476,0.08991 -0.0217,0.134874 -0.0069,0.0451 -0.01341,0.09021 -0.01963,0.135393 -0.0062,0.0451 -0.01201,0.09019 -0.01757,0.135392 -0.0056,0.0453 -0.01098,0.0906 -0.01601,0.135909 -0.005,0.0454 -0.0091,0.09091 -0.01344,0.136427 -0.0043,0.0453 -0.0082,0.0906 -0.01188,0.135908 -0.0038,0.0455 -0.0077,0.0909 -0.01085,0.136428 -0.0031,0.0455 -0.0058,0.09091 -0.0083,0.136424 -0.0024,0.0456 -0.0048,0.0913 -0.0067,0.136943 -0.0019,0.0455 -0.0034,0.0909 -0.0047,0.136424 -0.0013,0.0456 -0.0024,0.0913 -0.0031,0.136944 -5.29e-4,0.0457 -5.29e-4,0.0913 -5.29e-4,0.136943 v 27.412274 c 0.0483,0.0361 0.09653,0.0723 0.144693,0.10852 0.08132,0.0616 0.162454,0.12343 0.243395,0.18552 0.08098,0.0619 0.161766,0.12413 0.242364,0.18656 0.08064,0.0625 0.161078,0.12515 0.241329,0.1881 0.08012,0.063 0.160046,0.12619 0.239779,0.18965 0.07977,0.0633 0.159358,0.12689 0.238744,0.19069 0.07943,0.064 0.15867,0.12825 0.237712,0.19275 0.07909,0.0644 0.157983,0.12895 0.236678,0.19379 0.07858,0.0649 0.156951,0.12998 0.235127,0.19533 0.07823,0.0654 0.156263,0.13102 0.234095,0.19689 0.07789,0.0659 0.155578,0.13206 0.233061,0.19844 0.07737,0.0662 0.154543,0.13274 0.231511,0.19947 0.07703,0.0668 0.153857,0.13378 0.230476,0.20102 0.07669,0.0673 0.153169,0.13481 0.229444,0.20257 0.07617,0.0678 0.152138,0.13585 0.227893,0.20412 0.07583,0.0682 0.15145,0.13654 0.226859,0.20516 0.07531,0.0687 0.150418,0.13758 0.225309,0.2067 0.07497,0.069 0.14973,0.13826 0.224276,0.20774 0.07446,0.0697 0.148699,0.13965 0.222727,0.20981 0.07411,0.0701 0.148008,0.14033 0.221691,0.21084 0.0736,0.0704 0.146976,0.14102 0.220142,0.21187 0.07325,0.0709 0.146288,0.14207 0.219105,0.21343 0.0729,0.0714 0.14561,0.14309 0.21808,0.21497 0.0722,0.0718 0.14422,0.14379 0.216,0.21601 0.072,0.0723 0.14388,0.14481 0.21549,0.21756 0.0714,0.0726 0.14251,0.14551 0.21343,0.21859 0.071,0.0732 0.14182,0.14654 0.21239,0.22014 0.0707,0.0735 0.14112,0.14723 0.21135,0.22117 0.07,0.074 0.13975,0.14827 0.20929,0.22273 0.0698,0.0745 0.13942,0.14931 0.20878,0.22427 0.0691,0.0747 0.13803,0.14966 0.2067,0.2248 0.0688,0.0754 0.13735,0.15103 0.20568,0.22686 0.0683,0.0756 0.13631,0.15137 0.20412,0.22737 0.0678,0.0761 0.13528,0.15241 0.20257,0.22893 0.0674,0.0766 0.1346,0.15345 0.20154,0.23048 0.0669,0.077 0.13355,0.15414 0.19998,0.23151 0.0664,0.0773 0.13253,0.15482 0.19844,0.23254 0.066,0.0777 0.13185,0.15552 0.19741,0.23358 0.0653,0.0782 0.13046,0.15656 0.19533,0.23513 0.065,0.0785 0.12978,0.15724 0.1943,0.23616 0.0645,0.079 0.12875,0.15827 0.19276,0.23771 0.0641,0.0792 0.12806,0.15862 0.19172,0.23823 0.0635,0.0797 0.12668,0.15966 0.18965,0.23978 0.0631,0.0803 0.12599,0.16069 0.18862,0.24132 0.0624,0.0804 0.12461,0.16104 0.18655,0.24185 0.0621,0.0809 0.12393,0.16208 0.18552,0.2434 0.0494,0.0653 0.0987,0.13079 0.14779,0.19637 0.0364,-0.0485 0.0729,-0.0969 0.10956,-0.14521 0.0614,-0.0813 0.12309,-0.16246 0.185,-0.2434 0.0619,-0.081 0.12412,-0.16176 0.18655,-0.24236 0.0624,-0.0806 0.12515,-0.16108 0.18811,-0.24133 0.063,-0.0801 0.12619,-0.16005 0.18965,-0.23978 0.0635,-0.0799 0.12722,-0.1597 0.1912,-0.23926 0.0638,-0.0794 0.12792,-0.15867 0.19224,-0.23771 0.0645,-0.0789 0.12929,-0.15765 0.1943,-0.23616 0.0649,-0.0788 0.12999,-0.1573 0.19534,-0.23565 0.0654,-0.0782 0.13101,-0.15626 0.19688,-0.23409 0.0657,-0.0777 0.13171,-0.15524 0.19793,-0.23255 0.0664,-0.0776 0.13308,-0.15488 0.19998,-0.23202 0.0668,-0.0769 0.13378,-0.15351 0.20102,-0.22996 0.0673,-0.0767 0.13481,-0.15318 0.20258,-0.22945 0.0676,-0.0762 0.1355,-0.15213 0.2036,-0.22789 0.0682,-0.0758 0.13654,-0.15145 0.20516,-0.22686 0.0687,-0.0753 0.13757,-0.15042 0.2067,-0.22531 0.0692,-0.075 0.13861,-0.14973 0.20826,-0.22427 0.0695,-0.0744 0.1393,-0.1487 0.20929,-0.22273 0.0701,-0.0741 0.14033,-0.14801 0.21084,-0.22169 0.0704,-0.0738 0.14102,-0.14732 0.21187,-0.22066 0.0711,-0.0733 0.14241,-0.14629 0.21394,-0.21911 0.0713,-0.0727 0.14275,-0.14526 0.21446,-0.21756 0.0718,-0.0724 0.14379,-0.14457 0.21601,-0.21652 0.0723,-0.0719 0.14481,-0.14353 0.21755,-0.21497 0.0728,-0.0715 0.14586,-0.14286 0.21911,-0.21395 0.073,-0.071 0.14619,-0.14182 0.21962,-0.21239 0.0737,-0.0705 0.14759,-0.14079 0.2217,-0.21084 0.074,-0.0702 0.14826,-0.14009 0.22272,-0.2098 0.0744,-0.0697 0.14896,-0.13907 0.22376,-0.20826 0.0749,-0.0691 0.15,-0.13803 0.22531,-0.2067 0.0752,-0.0688 0.15068,-0.13734 0.22635,-0.20568 0.0757,-0.0683 0.15172,-0.13631 0.22789,-0.20412 0.0761,-0.0679 0.1524,-0.13562 0.22892,-0.20309 0.0765,-0.0672 0.1531,-0.13425 0.22996,-0.20102 0.077,-0.0669 0.15415,-0.13355 0.23151,-0.19998 0.0773,-0.0666 0.15483,-0.13288 0.23255,-0.19896 0.0778,-0.0659 0.15586,-0.1315 0.23409,-0.19689 0.078,-0.0655 0.15621,-0.13081 0.23461,-0.19585 0.0787,-0.065 0.15759,-0.12977 0.23668,-0.1943 0.0789,-0.0645 0.15794,-0.12875 0.2372,-0.19276 0.0794,-0.064 0.15896,-0.12771 0.23874,-0.1912 0.0797,-0.0636 0.15966,-0.12702 0.23978,-0.19017 0.0801,-0.063 0.16035,-0.12565 0.24081,-0.1881 0.0804,-0.0626 0.16105,-0.12496 0.24185,-0.18707 0.0809,-0.0621 0.16207,-0.12393 0.24339,-0.18552 0.065,-0.0491 0.13011,-0.098 0.19534,-0.14676 V 89.237985 79.237561 Z"
           id="path833" />
      </g>
    </g>
  </g>
</svg>
