<?xml version="1.0" encoding="UTF-8" standalone="no"?>
<svg
   width="26"
   height="30"
   viewBox="0 0 26 30"
   version="1.1"
   id="svg5"
   sodipodi:docname="instagram.svg"
   inkscape:version="1.1.2 (0a00cf5339, 2022-02-04)"
   xmlns:inkscape="http://www.inkscape.org/namespaces/inkscape"
   xmlns:sodipodi="http://sodipodi.sourceforge.net/DTD/sodipodi-0.dtd"
   xmlns="http://www.w3.org/2000/svg"
   xmlns:svg="http://www.w3.org/2000/svg">
  <defs
     id="defs9" />
  <sodipodi:namedview
     id="namedview7"
     pagecolor="#ffffff"
     bordercolor="#999999"
     borderopacity="1"
     inkscape:pageshadow="0"
     inkscape:pageopacity="0"
     inkscape:pagecheckerboard="0"
     showgrid="false"
     inkscape:zoom="18.166667"
     inkscape:cx="13.12844"
     inkscape:cy="14.834862"
     inkscape:window-width="1356"
     inkscape:window-height="701"
     inkscape:window-x="0"
     inkscape:window-y="31"
     inkscape:window-maximized="1"
     inkscape:current-layer="svg5" />
  <path
     style="fill:#ffffff;stroke-width:0.113616"
     d="M 7.3760216,27.674111 C 5.9721494,27.566385 5.0172834,27.320113 3.9722983,26.796247 2.370468,25.993227 1.0865105,24.353415 0.61374533,22.506856 0.32999802,21.398577 0.22338897,19.350637 0.22338897,15.00822 0.22338897,8.962482 0.36453722,7.674245 1.212524,5.980518 2.0142564,4.3791761 3.6543255,3.0948528 5.5013633,2.6219649 6.6096436,2.3382188 8.6575815,2.2316086 12.999999,2.2316086 c 4.342418,0 6.390357,0.1066102 7.498637,0.3903563 1.847038,0.4728879 3.487107,1.7572112 4.288839,3.3585531 0.847988,1.693727 0.989137,2.981964 0.989137,9.027702 0,4.342417 -0.106615,6.390357 -0.390356,7.498636 -0.47289,1.847039 -1.757213,3.487107 -3.358555,4.28884 -1.100153,0.550806 -1.904177,0.749042 -3.574147,0.881221 C 16.8942,27.800342 8.9949622,27.79834 7.3760216,27.674069 Z M 19.807153,25.187932 c 1.962976,-0.520826 2.915608,-1.527607 3.450657,-3.646808 0.160774,-0.636779 0.186457,-1.536645 0.186457,-6.532904 0,-5.1214355 -0.02288,-5.8855016 -0.197062,-6.5788024 C 22.967824,7.3173344 22.692076,6.751707 22.134319,6.1466132 21.50176,5.4603682 20.91181,5.1237908 19.807151,4.8189246 18.93605,4.5785149 18.723805,4.5707777 12.999999,4.5707777 c -5.723806,0 -5.9360503,0.00774 -6.807151,0.2481469 C 5.0881897,5.1237908 4.498239,5.4603682 3.8656801,6.1466132 3.3079236,6.751707 3.032176,7.3173344 2.7527949,8.4294176 2.578621,9.1227184 2.5557343,9.8867845 2.5557343,15.00822 c 0,6.196595 0.025927,6.530842 0.608805,7.848533 0.2690558,0.608246 1.0443057,1.458042 1.6485947,1.807118 1.2802581,0.739562 2.5050501,0.846396 9.152599,0.798346 4.593584,-0.03321 5.005721,-0.05255 5.84142,-0.274285 z m -8.528979,-3.863116 c -1.188185,-0.340033 -1.9692835,-0.804963 -2.8815234,-1.71516 -2.6055443,-2.599709 -2.6055443,-6.59924 0,-9.204785 2.0545184,-2.0545186 4.9350454,-2.513246 7.6141644,-1.2125651 1.001622,0.486275 2.318823,1.8034761 2.805098,2.8050981 1.300681,2.67912 0.841954,5.559647 -1.212563,7.614165 -0.928516,0.928513 -1.808333,1.4369 -3.02913,1.750326 -0.910369,0.233728 -2.408654,0.216872 -3.296046,-0.03708 z m 3.508753,-2.479321 c 2.954369,-1.382515 3.317893,-5.48 0.649181,-7.317279 -3.296271,-2.2693217 -7.6009405,0.811336 -6.5192247,4.665515 0.3651814,1.301147 1.5151637,2.475242 2.8333427,2.892754 0.899785,0.284991 2.119564,0.188191 3.036701,-0.24099 z M 19.105806,9.4984712 C 18.646229,9.2182648 18.284115,8.641805 18.283555,8.1895048 c -0.001,-0.7807512 0.750981,-1.5320393 1.533387,-1.5320393 0.783026,0 1.533812,0.7507858 1.533812,1.533812 0,0.782406 -0.751288,1.534355 -1.53204,1.5333877 -0.18844,-2.386e-4 -0.509249,-0.1020219 -0.712908,-0.226194 z"
     id="path259" />
</svg>
