<?xml version="1.0" encoding="UTF-8" standalone="no"?>
<svg
   width="92"
   height="81"
   viewBox="0 0 92 81"
   version="1.1"
   id="svg5"
   sodipodi:docname="map.svg"
   inkscape:version="1.1.2 (0a00cf5339, 2022-02-04)"
   xmlns:inkscape="http://www.inkscape.org/namespaces/inkscape"
   xmlns:sodipodi="http://sodipodi.sourceforge.net/DTD/sodipodi-0.dtd"
   xmlns="http://www.w3.org/2000/svg"
   xmlns:svg="http://www.w3.org/2000/svg">
  <defs
     id="defs9" />
  <sodipodi:namedview
     id="namedview7"
     pagecolor="#ffffff"
     bordercolor="#999999"
     borderopacity="1"
     inkscape:pageshadow="0"
     inkscape:pageopacity="0"
     inkscape:pagecheckerboard="0"
     showgrid="false"
     inkscape:zoom="4.7576938"
     inkscape:cx="45.925612"
     inkscape:cy="40.670966"
     inkscape:window-width="1356"
     inkscape:window-height="701"
     inkscape:window-x="0"
     inkscape:window-y="31"
     inkscape:window-maximized="1"
     inkscape:current-layer="svg5" />
  <path
     style="fill:#000000;stroke-width:0.335816"
     d="M 19.636391,76.749441 C 17.419999,74.991594 12.513265,71.101079 8.7325347,68.103853 4.9518044,65.106626 1.5894381,62.389895 1.2606096,62.066671 0.69729367,61.512956 0.66273801,59.93986 0.66273801,34.848716 c 0,-20.26468 0.096326,-26.7266024 0.40298029,-27.033257 0.59991,-0.5999099 1.8429059,-0.4879754 2.7007701,0.2432087 0.5552665,0.47327 15.9932536,12.7522723 19.9597516,15.8755073 0.26947,0.212179 1.313716,-0.407354 3.270514,-1.940334 2.862617,-2.242608 2.873803,-2.257354 2.671567,-3.52207 -0.308887,-1.931669 0.457789,-5.581676 1.729978,-8.236133 1.32867,-2.7722997 4.74121,-6.2491192 7.326214,-7.4642153 6.438768,-3.02657635 13.576784,-2.01269821 18.802265,2.6706574 3.302464,2.9598461 5.262079,7.5224089 5.262079,12.2516739 v 2.404113 l 2.266764,1.82147 c 1.24672,1.001805 2.447988,1.929712 2.669482,2.062006 0.244572,0.14608 3.013936,-1.844353 7.052155,-5.068615 C 88.985843,7.5680694 88.96919,7.5803872 90.102098,7.5803872 h 1.063285 l 0.08594,27.1125598 0.08594,27.112559 -6.634367,5.269921 c -3.648903,2.898455 -8.771043,6.980722 -11.382533,9.071706 -2.61149,2.09098 -4.986535,3.801786 -5.277876,3.801786 -0.291344,0 -2.08373,-1.235409 -3.983077,-2.745353 C 54.816386,69.855541 52.303325,67.852849 49.334532,65.46911 l -3.211907,-2.578945 -8.8775,7.048292 c -12.15615,9.65138 -12.627647,10.010694 -13.133653,10.008766 -0.244904,-10e-4 -2.25869,-1.439936 -4.475081,-3.197782 z M 22.82665,60.281003 c 0,-14.09184 -0.03434,-14.95698 -0.587679,-14.803919 -0.323224,0.08941 -1.993398,0.26267 -3.711502,0.385027 -3.410169,0.24286 -4.09624,0.01321 -4.09624,-1.371173 0,-1.166987 0.884317,-1.452032 4.826911,-1.55588 l 3.564975,-0.0939 0.0017,-7.911193 0.0017,-7.911194 -9.570871,-7.611624 -9.5707802,-7.611628 V 28.91347 c 0,9.414872 0.080411,17.117949 0.1786949,17.117949 0.09828,0 0.721207,-0.226676 1.3842774,-0.503725 C 7.6557336,44.52161 9.535317,45.18822 8.8211525,46.795 8.5957354,47.302156 7.7433516,47.815234 6.1708187,48.390324 l -2.3180464,0.84773 -0.084586,5.532791 -0.084582,5.532791 7.3046447,5.771448 c 4.017558,3.174296 8.211353,6.524898 9.319548,7.445779 1.108196,0.920879 2.128239,1.686092 2.266764,1.700475 0.138524,0.01437 0.251863,-6.708768 0.251863,-14.940333 z m 11.822675,7.908732 c 11.344485,-9.067488 11.086882,-8.889152 12.07671,-8.36054 0.835264,0.446073 15.71109,12.106898 19.169128,15.026252 0.558867,0.471806 0.58713,-0.69594 0.576474,-23.818682 L 66.460419,26.721948 64.100915,24.92293 c -1.297727,-0.989461 -2.400123,-1.745049 -2.449771,-1.679084 -0.04965,0.06597 -0.660471,1.177757 -1.357381,2.470651 -1.45175,2.693252 -3.922258,6.40712 -6.366584,9.57078 -7.195048,9.31245 -7.153995,9.267811 -8.18782,8.903063 -0.319496,-0.112721 -2.500979,-2.728713 -4.847738,-5.813319 -5.93964,-7.807124 -6.842587,-9.114865 -8.630033,-12.498884 l -1.570719,-2.973713 -2.588849,2.045867 -2.58885,2.045866 v 24.126662 c 1.4e-5,13.269664 0.06888,24.126664 0.153052,24.126664 0.08417,0 4.126568,-3.175984 8.983101,-7.057748 z M 57.137552,59.522 c -2.855383,-0.916229 -3.624205,-1.558627 -3.255539,-2.720197 0.34172,-1.076659 1.129131,-1.073136 4.578937,0.02049 2.874612,0.911266 3.360126,1.171775 3.543187,1.90114 0.151963,0.605474 0.03701,0.97322 -0.405305,1.296652 -0.816185,0.59681 -1.173445,0.556924 -4.46128,-0.498066 z M 44.402884,52.885957 c -2.869934,-1.953306 -3.417813,-2.876899 -2.271127,-3.828567 0.736356,-0.611123 1.7699,-0.222688 4.489711,1.687358 2.247582,1.57842 2.430001,1.79573 2.334542,2.781105 -0.167543,1.729409 -1.307332,1.569224 -4.553126,-0.639896 z M 32.397432,47.297286 c -3.742115,-1.067143 -3.861895,-1.136314 -3.861895,-2.23019 0,-1.598354 0.888024,-1.723426 4.780054,-0.673243 3.468229,0.935828 4.367007,1.845405 3.087655,3.124752 -0.647106,0.647106 -1.035844,0.625631 -4.005814,-0.221319 z M 80.46122,66.643838 c 6.867596,-5.453417 8.101581,-6.566871 8.101581,-7.310249 0,-1.046092 0.03823,-1.041938 -2.278403,-0.247761 -3.006218,1.030581 -3.581469,1.102798 -4.161782,0.522487 -0.63331,-0.633311 -0.688874,-1.679327 -0.10918,-2.05535 0.23036,-0.149426 1.779315,-0.725489 3.442122,-1.280137 l 3.023289,-1.008459 0.06865,-21.575226 c 0.03775,-11.866377 -0.02841,-21.575228 -0.147011,-21.575228 -0.252323,0 -1.7582,1.166346 -11.591269,8.977791 L 69.5052,26.894054 V 42.892799 58.89154 l 2.830348,-0.217555 c 2.328877,-0.179014 2.923867,-0.12404 3.358169,0.310262 0.669921,0.66992 0.669957,1.297185 1.07e-4,1.967032 -0.396256,0.39626 -1.232781,0.527713 -3.358168,0.527713 H 69.5052 v 6.912464 6.912465 l 1.427222,-1.113391 c 0.784971,-0.612366 5.072933,-4.008377 9.528803,-7.546692 z M 50.101622,35.369232 c 4.771514,-6.195714 6.593764,-8.932456 8.217378,-12.341269 1.203927,-2.527664 1.279596,-2.875197 1.279596,-5.876795 0,-3.877738 -0.779178,-5.838083 -3.503016,-8.8132921 C 52.840028,4.7818843 47.781847,3.2644454 42.924125,4.3864835 38.385704,5.434766 34.46927,9.1827575 33.10229,13.78588 c -1.689024,5.687563 0.356151,10.20633 10.545006,23.298939 1.385245,1.780031 2.545854,3.236711 2.57913,3.237067 0.03328,3.35e-4 1.777117,-2.228339 3.875196,-4.952654 z m -6.213377,-8.49085 C 41.934966,26.388794 40.885737,25.736715 39.322603,24.040918 37.390148,21.94445 36.817258,20.4927 36.797821,17.642922 c -0.03531,-5.176346 3.432078,-8.9703207 8.626453,-9.4389766 4.013327,-0.3620979 7.607165,1.7188319 9.357234,5.4180926 1.347184,2.84765 1.32503,5.368281 -0.07174,8.163472 -0.564813,1.130296 -1.509298,2.462835 -2.098856,2.961197 -2.305819,1.949151 -5.92357,2.83327 -8.722664,2.131675 z m 6.093021,-3.937094 c 1.990363,-1.601403 2.733085,-2.954285 2.733085,-4.978377 0,-2.222745 -0.422639,-3.359566 -1.783635,-4.797634 -2.666616,-2.817628 -7.038203,-2.781302 -9.549895,0.07936 -2.89726,3.299798 -1.988378,8.104601 1.930658,10.206408 2.102016,1.127323 4.900955,0.913412 6.669787,-0.50975 z"
     id="path41" />
</svg>
