<?xml version="1.0" encoding="UTF-8" standalone="no"?>
<svg
   width="80"
   height="80"
   viewBox="0 0 80 80"
   version="1.1"
   id="svg5"
   sodipodi:docname="msg.svg"
   inkscape:version="1.1.2 (0a00cf5339, 2022-02-04)"
   xmlns:inkscape="http://www.inkscape.org/namespaces/inkscape"
   xmlns:sodipodi="http://sodipodi.sourceforge.net/DTD/sodipodi-0.dtd"
   xmlns="http://www.w3.org/2000/svg"
   xmlns:svg="http://www.w3.org/2000/svg">
  <defs
     id="defs9" />
  <sodipodi:namedview
     id="namedview7"
     pagecolor="#ffffff"
     bordercolor="#999999"
     borderopacity="1"
     inkscape:pageshadow="0"
     inkscape:pageopacity="0"
     inkscape:pagecheckerboard="0"
     showgrid="false"
     inkscape:zoom="2.4085825"
     inkscape:cx="39.234695"
     inkscape:cy="39.234695"
     inkscape:window-width="1356"
     inkscape:window-height="701"
     inkscape:window-x="0"
     inkscape:window-y="31"
     inkscape:window-maximized="1"
     inkscape:current-layer="svg5" />
  <path
     style="fill:#000000;stroke-width:0.135611"
     d="M 7.7511982,77.70303 C 5.9320123,77.202921 3.8809041,75.534415 3.1381704,73.95049 2.3271452,72.220925 2.3683826,73.410856 2.3708163,51.806699 l 0.00246,-19.804723 0.3028999,-0.504471 C 2.8642181,31.184309 4.9586398,29.34431 8.2001158,26.644592 l 5.2210512,-4.348452 0.08851,-0.686468 c 0.04868,-0.377557 0.07129,-2.862177 0.05027,-5.521383 -0.02101,-2.6592 0.0043,-5.963884 0.05607,-7.3437349 0.08966,-2.3845251 0.113583,-2.5491232 0.483098,-3.3224846 0.760793,-1.5922853 2.307029,-2.7848588 4.10905,-3.1692104 0.517028,-0.1102805 6.719753,-0.15328 22.110127,-0.15328 23.066051,0 22.097834,-0.028403 23.506045,0.6899934 0.785394,0.4006791 1.807431,1.3961909 2.27828,2.2191504 0.804408,1.4059564 0.817396,1.5633889 0.817396,9.9078431 v 7.606752 l 5.165077,4.3282 c 2.840791,2.38051 5.251286,4.494919 5.356662,4.698689 0.162541,0.314311 0.191085,3.389304 0.188275,20.278254 -0.0024,13.184573 -0.05059,20.113852 -0.143242,20.518007 -0.426113,1.85839 -1.921372,3.81523 -3.594696,4.704393 -1.73347,0.921121 0.850433,0.85697 -33.978382,0.843563 C 14.239257,77.884566 8.2827733,77.849076 7.7514324,77.70303 Z M 71.295787,73.651009 c 0.886482,-0.266788 1.34403,-0.638694 1.80125,-1.464075 l 0.399916,-0.721939 0.03592,-17.324404 c 0.01978,-9.52842 -0.01436,-17.324397 -0.07576,-17.324397 -0.06142,0 -0.691386,0.411917 -1.399913,0.915378 -0.70852,0.503455 -5.783513,4.058181 -11.277761,7.899382 -5.494243,3.841201 -9.97606,7.024275 -9.959591,7.073496 0.03414,0.102086 0.663149,0.584753 7.217368,5.538413 8.668905,6.551939 9.487835,7.194053 9.738487,7.635865 0.311551,0.549147 0.242557,1.592181 -0.139195,2.104367 -0.569306,0.763823 -1.84778,1.112612 -2.600883,0.709567 -0.154667,-0.08277 -1.426437,-1.020674 -2.826139,-2.084219 C 51.322202,58.335928 47.229289,55.25939 47.111104,55.25939 c -0.06057,0 -1.35064,0.875995 -2.866841,1.946656 -3.315897,2.341526 -3.499189,2.443297 -4.248256,2.358863 -0.621789,-0.07008 -0.68016,-0.106424 -4.236896,-2.637833 -1.28875,-0.917226 -2.397789,-1.667686 -2.464528,-1.667686 -0.06675,0 -0.415897,0.224966 -0.775894,0.499924 -0.360002,0.274959 -1.783512,1.3535 -3.163363,2.396761 -1.379851,1.043255 -3.759837,2.850588 -5.288858,4.016286 -6.975102,5.317684 -8.475461,6.425325 -8.962681,6.616713 -1.582741,0.621719 -3.295627,-1.282738 -2.508618,-2.789185 0.272185,-0.521015 0.625989,-0.820434 3.741425,-3.16629 2.789867,-2.100706 6.394839,-4.827341 10.886314,-8.233914 1.325816,-1.005567 2.39376,-1.877577 2.373206,-1.937797 -0.02058,-0.0602 -1.898641,-1.411248 -4.173528,-3.002301 -2.274891,-1.591047 -7.41796,-5.192716 -11.429052,-8.003718 -4.0110906,-2.810994 -7.3217146,-5.1109 -7.3569385,-5.1109 -0.035242,0 -0.062704,7.857005 -0.061058,17.460013 0.00308,16.668482 0.014294,17.484947 0.2528089,18.010028 0.3247168,0.714909 1.2625592,1.510433 1.9675248,1.668957 0.3302558,0.07426 13.0293698,0.131093 31.2173388,0.139712 25.712601,0.0122 30.760984,-0.01571 31.28259,-0.17267 z M 44.272618,52.136469 c 1.752786,-1.222043 6.099919,-4.26891 9.660294,-6.770813 3.560383,-2.501902 6.993056,-4.908084 7.628164,-5.347061 l 1.154744,-0.798142 v -15.85494 c 0,-17.1633725 0.03499,-16.3302963 -0.707461,-16.8503189 -0.270725,-0.189619 -2.529794,-0.2116516 -21.705392,-0.2116516 -23.732455,0 -22.018971,-0.067731 -22.417519,0.8861308 -0.162805,0.3896505 -0.192736,2.9008697 -0.192736,16.1729567 v 15.711684 l 0.30513,0.273221 c 0.16782,0.150267 2.441012,1.76703 5.051537,3.592797 2.610526,1.825773 6.516144,4.562327 8.679154,6.081237 2.163008,1.518911 4.962667,3.484101 6.221467,4.367084 l 2.288724,1.605427 0.423506,-0.317859 c 0.232933,-0.174826 1.857608,-1.317709 3.610388,-2.539752 z M 38.509123,44.599996 C 35.896385,44.257789 34.186425,43.776957 32.406592,42.884 27.489124,40.416864 24.187259,36.044465 23.098965,30.558633 c -0.252686,-1.273724 -0.212908,-4.67924 0.07145,-6.11785 1.338602,-6.772075 6.773032,-12.161311 13.575778,-13.46289 6.555722,-1.2543151 13.162855,1.333217 17.1467,6.715121 1.161391,1.568958 2.233851,3.830843 2.750134,5.800198 0.40299,1.537197 0.419626,1.715128 0.478644,5.118467 0.0581,3.350144 0.0464,3.569848 -0.234177,4.407386 -0.919316,2.744089 -3.329951,4.47958 -6.213896,4.473573 -1.7279,-0.0037 -3.131763,-0.636112 -4.503572,-2.029106 l -1.018242,-1.033964 -1.08374,0.578715 c -0.59606,0.31829 -1.492449,0.672206 -1.991985,0.786472 -1.178452,0.269574 -3.166604,0.266043 -4.225423,-0.0075 -4.081132,-1.054365 -6.850403,-5.069892 -6.329543,-9.178026 0.446273,-3.519878 3.013522,-6.382123 6.476261,-7.220423 1.392753,-0.337182 3.558078,-0.230548 4.816294,0.237178 2.547115,0.946862 4.407963,2.813853 5.284143,5.301585 0.253677,0.720251 0.305845,1.240742 0.376059,3.751918 0.09194,3.288168 0.157044,3.53643 1.089064,4.15321 0.462082,0.305795 0.645805,0.347001 1.327302,0.297705 0.936857,-0.06777 1.513723,-0.421775 1.853263,-1.137313 0.367915,-0.775321 0.346806,-5.381574 -0.03228,-7.042927 -0.560619,-2.456975 -1.683084,-4.505242 -3.446437,-6.289032 -1.584675,-1.603037 -3.372292,-2.67106 -5.631114,-3.364332 -1.08875,-0.334155 -1.391127,-0.366477 -3.497199,-0.37384 -2.658633,-0.0093 -3.769311,0.212397 -5.730871,1.143905 -1.437226,0.682514 -2.147409,1.176561 -3.395427,2.362055 -1.692646,1.607849 -2.801408,3.420491 -3.508783,5.736281 -0.333096,1.090494 -0.364328,1.387768 -0.367451,3.497199 -0.0031,2.137184 0.02391,2.394466 0.370902,3.525907 0.403229,1.314814 1.298337,3.089391 2.117877,4.198769 0.772444,1.04561 2.512278,2.602985 3.658766,3.275049 1.99244,1.167965 3.868588,1.704901 6.619189,1.894341 1.614866,0.111223 2.051798,0.315352 2.482637,1.15987 0.483825,0.948384 0.213321,1.906263 -0.739301,2.617932 -0.304379,0.227393 -0.594026,0.283288 -1.551154,0.299313 -0.647289,0.01084 -1.359962,-0.0043 -1.58372,-0.03358 z m 3.379839,-13.063589 c 0.856205,-0.419626 1.599956,-1.167128 2.062137,-2.072525 0.296744,-0.581305 0.367815,-0.909565 0.376471,-1.738747 0.0094,-0.893919 -0.04535,-1.135927 -0.435724,-1.928925 -0.969814,-1.969963 -3.08681,-2.851283 -5.282634,-2.199193 -0.907,0.269351 -2.06507,1.317301 -2.549178,2.306782 -0.318716,0.651442 -0.353545,0.860204 -0.309739,1.856536 0.07253,1.64971 0.665182,2.69697 2.012958,3.557076 0.783792,0.500183 1.235277,0.610019 2.373206,0.577341 0.82697,-0.02373 1.243614,-0.108944 1.752503,-0.358345 z m -28.312594,1.846369 c 0.01319,-1.505307 -0.0091,-3.417633 -0.04947,-4.249619 l -0.07343,-1.512702 -1.779219,1.500984 c -0.978574,0.825547 -2.2216518,1.871051 -2.7624068,2.32335 -0.5407487,0.452304 -0.9802132,0.85424 -0.9765781,0.893191 0.010844,0.116233 5.4799849,3.895777 5.5513939,3.836383 0.03616,-0.03007 0.07651,-1.286281 0.0897,-2.791587 z m 55.377592,1.472615 c 2.347711,-1.631945 3.25468,-2.296178 3.25468,-2.383625 0,-0.07702 -3.946786,-3.450102 -5.051747,-4.317432 -0.224633,-0.176322 -0.23711,0.03308 -0.23711,3.97937 v 4.16548 l 0.644154,-0.462661 c 0.354284,-0.254467 0.979795,-0.695976 1.390023,-0.981132 z"
     id="path251" />
</svg>
