<?xml version="1.0" encoding="UTF-8" standalone="no"?>
<svg
   width="36"
   height="80"
   viewBox="0 0 36 80"
   version="1.1"
   id="svg5"
   sodipodi:docname="phone-2.svg"
   inkscape:version="1.1.2 (0a00cf5339, 2022-02-04)"
   xmlns:inkscape="http://www.inkscape.org/namespaces/inkscape"
   xmlns:sodipodi="http://sodipodi.sourceforge.net/DTD/sodipodi-0.dtd"
   xmlns="http://www.w3.org/2000/svg"
   xmlns:svg="http://www.w3.org/2000/svg">
  <defs
     id="defs9" />
  <sodipodi:namedview
     id="namedview7"
     pagecolor="#ffffff"
     bordercolor="#999999"
     borderopacity="1"
     inkscape:pageshadow="0"
     inkscape:pageopacity="0"
     inkscape:pagecheckerboard="0"
     showgrid="false"
     inkscape:zoom="3.40625"
     inkscape:cx="30.091743"
     inkscape:cy="54.165138"
     inkscape:window-width="1356"
     inkscape:window-height="701"
     inkscape:window-x="0"
     inkscape:window-y="31"
     inkscape:window-maximized="1"
     inkscape:current-layer="svg5" />
  <path
     style="fill:#000000;stroke-width:0.0735402"
     d="M 5.1073574,76.068482 C 4.0524517,75.858474 3.1813716,75.396325 2.416148,74.640663 1.8138581,74.045898 1.44519,73.459107 1.1164427,72.572029 L 0.91556534,72.029972 0.89665049,40.223827 C 0.87783073,8.6828216 0.87887625,8.4127787 1.0240547,7.8293622 1.1045615,7.5057865 1.3116551,6.9597478 1.4842648,6.6159475 2.0002594,5.5882042 3.0615049,4.6326251 4.1729459,4.1949664 5.1381534,3.8148963 4.8956539,3.8214195 18.053655,3.8214195 c 13.015083,0 12.757443,-0.00647 13.707024,0.3418716 1.457782,0.5346976 2.616101,1.7471257 3.147818,3.2948653 l 0.203319,0.5918278 V 40.039975 72.029972 l -0.200877,0.542057 c -0.72804,1.964574 -2.167592,3.174511 -4.206648,3.535672 -0.294568,0.05219 -4.440794,0.07501 -12.759231,0.07027 C 7.7262912,76.172165 5.5343002,76.153463 5.1074144,76.068481 Z M 19.263918,73.605938 c 0.662029,-0.305147 1.30347,-0.961656 1.552946,-1.589426 0.23998,-0.603904 0.242927,-1.715487 0.0057,-2.310029 -0.252499,-0.63391 -0.860805,-1.257457 -1.546235,-1.58497 -0.520472,-0.248689 -0.615987,-0.269715 -1.226299,-0.269915 -1.048157,0 -1.754032,0.341904 -2.439518,1.182823 -0.617346,0.757307 -0.781078,1.973841 -0.399531,2.968441 0.214127,0.558151 0.85879,1.258952 1.417614,1.541037 0.588546,0.297101 0.88625,0.360419 1.547119,0.32904 0.447474,-0.02123 0.676666,-0.07749 1.087793,-0.267001 z M 32.674797,65.92603 c 0.06454,-0.168218 0.04876,-51.760522 -0.01587,-51.865104 -0.04467,-0.07235 -3.09724,-0.08747 -14.686489,-0.07275 l -14.6300495,0.01856 -0.01806,25.849384 c -0.00989,14.217164 -9.505e-4,25.923849 0.01977,26.014854 l 0.03783,0.165465 H 18.007156 c 12.938323,0 14.630125,-0.01274 14.667603,-0.110413 z M 21.911301,51.209854 c -0.613279,-0.07556 -1.761494,-0.351865 -2.452104,-0.590089 -1.260108,-0.434667 -3.19305,-1.44577 -4.339119,-2.269745 -1.690557,-1.215441 -3.78881,-3.178941 -4.990292,-4.669806 C 7.1943473,40.037747 5.9776866,36.243173 6.8748293,33.52843 7.2493809,32.395017 8.1130757,31.2766 9.1548074,30.57604 9.658065,30.237599 10.041847,30.174851 10.953808,30.281898 c 1.187489,0.139392 1.102211,0.06183 1.536491,1.397408 0.655423,2.015647 1.460064,4.459121 1.506021,4.573349 0.04524,0.112556 -0.264476,0.493898 -1.453534,1.789445 -0.327901,0.357268 -0.618182,0.688488 -0.645063,0.736045 -0.05123,0.09056 0.39494,0.887019 1.09515,1.955114 1.802907,2.75017 4.01022,4.623651 6.377405,5.412915 l 0.58444,0.194865 0.63147,-0.650165 c 0.347311,-0.357593 0.944734,-0.985406 1.327603,-1.395147 l 0.696141,-0.744983 0.404474,0.197278 c 0.385016,0.187792 0.646421,0.326015 2.794528,1.477664 0.505586,0.271061 1.189181,0.635134 1.519098,0.809054 0.699135,0.368568 0.713146,0.398899 0.615397,1.332014 -0.120779,1.152964 -0.346151,1.92246 -0.645138,2.2027 -0.69828,0.6545 -1.750011,1.238257 -2.656478,1.47445 -0.55123,0.143636 -2.131872,0.2397 -2.730512,0.16595 z m 6.91278,-9.228339 c -0.935628,-0.147165 -0.861062,-0.107236 -0.916875,-0.490938 -0.07566,-0.519879 -0.38477,-1.591023 -0.662742,-2.296313 -0.9949,-2.524259 -2.588328,-4.576149 -5.00224,-6.441458 -1.375326,-1.062769 -3.78844,-2.160066 -5.258123,-2.390993 -0.303349,-0.04766 -0.574592,-0.106813 -0.602755,-0.131444 -0.06473,-0.05662 -0.239135,-1.396834 -0.188359,-1.447613 0.06606,-0.06605 1.505848,0.258157 2.283409,0.514167 2.384409,0.785059 4.511006,2.13468 6.464965,4.102916 2.137319,2.152943 3.535704,4.565582 4.25268,7.337171 0.235409,0.910016 0.275805,1.330692 0.126436,1.316725 -0.05057,-0.0048 -0.273934,-0.03724 -0.496396,-0.07222 z m -3.21421,-0.454452 -0.529995,-0.07269 -0.08478,-0.413036 c -0.495673,-2.415366 -2.017149,-4.662121 -4.2237,-6.237087 -1.078565,-0.769845 -2.563664,-1.413377 -3.695388,-1.601305 -0.171906,-0.02853 -0.313264,-0.0738 -0.314138,-0.100589 -7.32e-4,-0.02678 -0.04686,-0.346529 -0.102121,-0.710554 -0.05532,-0.364025 -0.08821,-0.675079 -0.07319,-0.691235 0.06235,-0.067 1.142617,0.162359 1.757624,0.373167 0.676077,0.231742 1.894439,0.781521 2.236645,1.009277 0.897238,0.597148 1.223581,0.835007 1.734946,1.264554 1.896977,1.593459 3.350901,3.793648 3.959473,5.991801 0.09999,0.36115 0.204347,0.797285 0.231901,0.969185 0.04933,0.30766 0.04686,0.31238 -0.158589,0.301878 -0.114782,-0.0059 -0.447189,-0.04338 -0.738687,-0.08336 z m -2.117452,-0.316676 c -0.04049,-0.01096 -0.363109,-0.05881 -0.717024,-0.106353 -0.541373,-0.07274 -0.643476,-0.107679 -0.643476,-0.220202 0,-0.298205 -0.454574,-1.441321 -0.783729,-1.970832 -0.392687,-0.631726 -1.180789,-1.46393 -1.787186,-1.887196 -0.568708,-0.396968 -1.368492,-0.760906 -1.918847,-0.873169 l -0.471226,-0.09612 -0.09609,-0.720448 c -0.05285,-0.396245 -0.08107,-0.735501 -0.06264,-0.753902 0.08174,-0.08172 1.39313,0.317826 1.99426,0.60757 0.961026,0.463208 1.519289,0.857806 2.27747,1.609787 0.784052,0.777634 1.217002,1.367 1.678154,2.28443 0.487726,0.970293 0.793852,2.19774 0.530337,2.126438 z M 22.287572,9.6389476 c 0.129543,-0.1049111 0.171935,-0.2134443 0.171935,-0.4402843 0,-0.5953571 0.277677,-0.5603579 -4.44584,-0.5603579 -4.65052,0 -4.374914,-0.030642 -4.460392,0.4960862 -0.03564,0.2198114 -0.01065,0.2977176 0.146205,0.4545338 l 0.189253,0.1892532 h 4.113443 c 3.926566,0 4.121265,-0.00623 4.285396,-0.139231 z"
     id="path109" />
</svg>
