<?xml version="1.0" encoding="UTF-8" standalone="no"?>
<svg
   width="26"
   height="30"
   viewBox="0 0 26 30"
   version="1.1"
   id="svg5"
   sodipodi:docname="pintrest.svg"
   inkscape:version="1.1.2 (0a00cf5339, 2022-02-04)"
   xmlns:inkscape="http://www.inkscape.org/namespaces/inkscape"
   xmlns:sodipodi="http://sodipodi.sourceforge.net/DTD/sodipodi-0.dtd"
   xmlns="http://www.w3.org/2000/svg"
   xmlns:svg="http://www.w3.org/2000/svg">
  <defs
     id="defs9" />
  <sodipodi:namedview
     id="namedview7"
     pagecolor="#ffffff"
     bordercolor="#999999"
     borderopacity="1"
     inkscape:pageshadow="0"
     inkscape:pageopacity="0"
     inkscape:pagecheckerboard="0"
     showgrid="false"
     inkscape:zoom="6.4228866"
     inkscape:cx="16.425636"
     inkscape:cy="16.425636"
     inkscape:window-width="1356"
     inkscape:window-height="701"
     inkscape:window-x="0"
     inkscape:window-y="31"
     inkscape:window-maximized="1"
     inkscape:current-layer="svg5" />
  <path
     style="fill:#ffffff;stroke-width:0.00950094"
     d="m 1.4179013,18.688664 v -7.657758 h 2.5462515 2.5462505 v 7.657758 7.657756 H 3.9641528 1.4179013 Z m 7.9178531,6.686285 c 0.034909,-5.264809 0.045565,-8.749383 0.034492,-11.27524 -0.00855,-1.946631 -0.016752,-2.666848 -0.033769,-2.961918 l -0.00621,-0.106885 h 2.5471896 2.547189 v 1.084714 1.084714 l 0.0741,-0.108492 c 0.174129,-0.254951 0.33309,-0.460532 0.517328,-0.669049 0.141831,-0.16052 0.437324,-0.450166 0.581937,-0.570424 0.855275,-0.711224 1.826867,-1.089937 3.010603,-1.173491 0.216479,-0.01529 0.859845,-0.0068 1.0653,0.01392 0.817315,0.08271 1.437802,0.252357 2.06515,0.564645 0.511214,0.254475 0.934231,0.562363 1.365224,0.993664 0.205692,0.205837 0.332902,0.351294 0.482059,0.551203 0.727616,0.975195 1.143812,2.256876 1.255849,3.86741 0.03101,0.445831 0.03325,0.795726 0.03336,5.227892 l 1.13e-4,4.448814 h -2.546246 -2.546251 l -9.5e-5,-4.206541 c 0,-2.737176 -0.0035,-4.271255 -0.0098,-4.391809 -0.04024,-0.767776 -0.173361,-1.352023 -0.417508,-1.832437 -0.12437,-0.244719 -0.241227,-0.406296 -0.426934,-0.590302 -0.211531,-0.209598 -0.407931,-0.338419 -0.681838,-0.447227 -0.552504,-0.219479 -1.341576,-0.236867 -1.926975,-0.04247 -0.379045,0.125876 -0.67606,0.314466 -0.988096,0.627403 -0.247639,0.24835 -0.43402,0.502341 -0.59879,0.816004 -0.18425,0.350745 -0.263758,0.640573 -0.298608,1.088514 -0.0067,0.08644 -0.01,1.559815 -0.01,4.553324 v 4.425531 H 11.876914 9.3292286 l 0.00641,-0.971471 z M 14.424687,13.235123 c 0,-0.01044 -0.002,-0.019 -0.0044,-0.019 -0.0024,0 -0.009,0.0086 -0.01458,0.019 -0.0081,0.01516 -0.0072,0.019 0.0044,0.019 0.0082,0 0.01459,-0.0082 0.01459,-0.019 z M 3.6648732,8.9350534 C 3.051233,8.876787 2.6294382,8.7337234 2.2108748,8.4418979 1.9621918,8.2685144 1.7152563,8.0152464 1.5439155,7.7578321 1.4652024,7.6395864 1.3554682,7.4286021 1.3042437,7.2970371 1.1184283,6.8197839 1.0727363,6.2028899 1.1849925,5.6870059 1.2879851,5.2136985 1.503471,4.8195267 1.8498807,4.4707792 2.3155915,4.0019225 2.8857157,3.7444054 3.6316191,3.6659905 3.8078513,3.6474674 4.2572089,3.6501644 4.4296987,3.670774 5.10938,3.7520518 5.629619,3.9827887 6.062948,4.395157 6.6066584,4.9125687 6.8722595,5.6021517 6.8494608,6.4371808 6.8344591,6.98661 6.6831822,7.4384814 6.3774297,7.8471624 6.0153201,8.3311734 5.4869941,8.6819676 4.8952437,8.8312914 4.584264,8.9097704 4.3971133,8.9318658 4.0116575,8.9356254 3.841828,8.9372538 3.6857738,8.9369485 3.6648732,8.9349598 Z"
     id="path59" />
</svg>
