<?xml version="1.0" encoding="UTF-8" standalone="no"?>
<svg
   width="28"
   height="30"
   viewBox="0 0 28 30"
   version="1.1"
   id="svg5"
   sodipodi:docname="twitter.svg"
   inkscape:version="1.1.2 (0a00cf5339, 2022-02-04)"
   xmlns:inkscape="http://www.inkscape.org/namespaces/inkscape"
   xmlns:sodipodi="http://sodipodi.sourceforge.net/DTD/sodipodi-0.dtd"
   xmlns="http://www.w3.org/2000/svg"
   xmlns:svg="http://www.w3.org/2000/svg">
  <defs
     id="defs9" />
  <sodipodi:namedview
     id="namedview7"
     pagecolor="#ffffff"
     bordercolor="#999999"
     borderopacity="1"
     inkscape:pageshadow="0"
     inkscape:pageopacity="0"
     inkscape:pagecheckerboard="0"
     showgrid="false"
     inkscape:zoom="12.845773"
     inkscape:cx="22.069516"
     inkscape:cy="19.656271"
     inkscape:window-width="1356"
     inkscape:window-height="701"
     inkscape:window-x="0"
     inkscape:window-y="31"
     inkscape:window-maximized="1"
     inkscape:current-layer="svg5" />
  <path
     style="fill:#ffffff;stroke-width:0.0886302"
     d="M 7.6887308,25.7426 C 5.3780089,25.473929 3.4355772,24.881994 1.623744,23.894362 1.2099111,23.668781 0.85347108,23.455518 0.83165345,23.420444 c -0.0218145,-0.03508 0.40366625,-0.05116 0.94551715,-0.03575 1.1757122,0.03344 2.1838372,-0.08853 3.2332233,-0.39117 0.9264675,-0.267196 2.3562156,-0.934088 3.1318973,-1.460843 L 8.7057232,21.150057 7.9272944,20.996843 C 6.1564138,20.64829 4.7685248,19.609104 3.9695378,18.033459 3.8227295,17.743944 3.7021069,17.466409 3.7014892,17.416715 c -7.418e-4,-0.05643 0.2495646,-0.07769 0.6665967,-0.05663 0.6812907,0.03441 1.6895668,-0.05123 1.6045225,-0.136278 C 5.9467206,17.197919 5.6666813,17.086285 5.3503022,16.975733 4.0681479,16.527712 2.9050847,15.475053 2.3112988,14.225208 2.011864,13.594933 1.7548581,12.607578 1.7520391,12.076664 l -0.00156,-0.289849 0.3546493,0.180928 c 0.3463517,0.176695 1.0315428,0.370831 1.7130138,0.485348 L 4.157513,12.510121 3.45711,11.817905 C 2.6935652,11.063286 2.2250805,10.258148 1.9733844,9.267986 1.8012634,8.5908654 1.8010613,7.2763119 1.9729604,6.6162815 2.0914495,6.161374 2.4467207,5.2317708 2.5020862,5.2317708 c 0.011418,0 0.4352546,0.4227826 0.9418626,0.9395156 2.5291544,2.5797083 5.6122327,4.1379326 9.1017902,4.6001496 0.550896,0.07298 1.040903,0.132674 1.088906,0.132674 0.05514,0 0.06557,-0.287533 0.02833,-0.780812 -0.199481,-2.6425006 1.438946,-4.995369 3.996624,-5.7393583 0.714844,-0.2079378 2.121505,-0.2082212 2.830877,-5.302e-4 0.772473,0.2261218 1.633447,0.6869777 2.148435,1.1499964 l 0.452801,0.4071072 0.746574,-0.2163501 c 0.923786,-0.2677017 1.570162,-0.5187956 2.174719,-0.8447996 0.25592,-0.1380022 0.465309,-0.2123976 0.465309,-0.1653204 0,0.387269 -0.945682,1.7896166 -1.543687,2.2891303 -0.146715,0.1225508 -0.367921,0.3094461 -0.49157,0.4153225 L 24.218241,7.610999 24.917237,7.479466 c 0.384447,-0.07234 1.041337,-0.2465726 1.459757,-0.3871772 0.418419,-0.1406057 0.77421,-0.2421994 0.790645,-0.2257635 0.03954,0.039545 -0.706154,0.9680591 -1.166466,1.4524203 -0.200665,0.2111496 -0.608671,0.579172 -0.906679,0.8178273 l -0.541833,0.433918 -0.04742,1.3093001 c -0.145025,4.004004 -1.881417,7.89917 -4.777183,10.71639 -2.096197,2.039339 -4.751296,3.3932 -7.713341,3.933109 -0.962317,0.175407 -3.5527633,0.303017 -4.326025,0.213109 z"
     id="path77" />
</svg>
