<?xml version="1.0" encoding="UTF-8" standalone="no"?>
<svg
   width="26"
   height="30"
   viewBox="0 0 26 30"
   version="1.1"
   id="svg5"
   sodipodi:docname="website.svg"
   inkscape:version="1.1.2 (0a00cf5339, 2022-02-04)"
   xmlns:inkscape="http://www.inkscape.org/namespaces/inkscape"
   xmlns:sodipodi="http://sodipodi.sourceforge.net/DTD/sodipodi-0.dtd"
   xmlns="http://www.w3.org/2000/svg"
   xmlns:svg="http://www.w3.org/2000/svg">
  <defs
     id="defs9" />
  <sodipodi:namedview
     id="namedview7"
     pagecolor="#ffffff"
     bordercolor="#999999"
     borderopacity="1"
     inkscape:pageshadow="0"
     inkscape:pageopacity="0"
     inkscape:pagecheckerboard="0"
     showgrid="false"
     inkscape:zoom="12.845773"
     inkscape:cx="13.350695"
     inkscape:cy="14.596241"
     inkscape:window-width="1356"
     inkscape:window-height="701"
     inkscape:window-x="0"
     inkscape:window-y="31"
     inkscape:window-maximized="1"
     inkscape:current-layer="svg5" />
  <path
     style="fill:#ffffff;stroke-width:0.0249464"
     d="M 15.790568,27.341459 C 11.959889,28.229623 7.8941877,27.239616 4.836826,24.674195 3.3754476,23.447965 2.1918985,21.868299 1.4195722,20.113251 0.96423198,19.078554 0.6133339,17.839456 0.45827335,16.718732 -0.11299597,12.589848 1.39726,8.4371895 4.4949388,5.6193367 5.7072735,4.5165101 7.1040015,3.6750838 8.6776964,3.0995215 9.4261862,2.8257692 10.499349,2.5610821 11.303746,2.4518271 c 4.384957,-0.5955698 8.799038,1.1669642 11.568702,4.6193607 1.207751,1.5054609 2.022433,3.2012442 2.471992,5.1455002 0.571832,2.47303 0.359966,5.134924 -0.596748,7.497849 -0.436606,1.078342 -1.072898,2.180385 -1.789564,3.09948 -1.545413,1.981936 -3.800527,3.545425 -6.109375,4.235675 -0.230143,0.06881 -0.4557,0.137862 -0.501233,0.153468 -0.04553,0.01562 -0.296147,0.0779 -0.556951,0.138302 z m -1.254953,-4.490787 -0.794287,-2.964318 -0.05126,0.02558 c -0.02821,0.01398 -0.190412,0.0701 -0.360496,0.124495 -0.648286,0.207365 -1.56661,0.601772 -2.258211,0.969861 -0.389344,0.207221 -1.054924,0.598587 -1.0776619,0.633673 -0.00799,0.01239 0.089784,0.152196 0.2174339,0.310585 1.216955,1.510044 2.757252,2.787262 4.459135,3.697533 0.393736,0.210594 0.409457,0.215213 0.604375,0.177567 l 0.05525,-0.01066 z m 2.066841,2.597797 c 0.05176,-0.01433 0.458959,-0.669519 0.717922,-1.155302 0.790172,-1.482267 1.310905,-3.027783 1.565292,-4.645731 0.03362,-0.213791 0.05056,-0.39411 0.03767,-0.400716 -0.03543,-0.01815 -0.82774,-0.02423 -1.2625,-0.0097 -0.750791,0.02511 -1.760341,0.145964 -2.439821,0.292067 -0.154454,0.03321 -0.311887,0.06373 -0.349849,0.06784 l -0.06902,0.0074 0.794846,2.966407 0.794847,2.96641 0.08636,-0.03915 c 0.0475,-0.02153 0.103419,-0.04384 0.124264,-0.04959 z m -3.61644,0.501044 C 11.631871,25.043145 10.511329,24.04784 9.5526061,22.899816 9.3811868,22.694539 9.1999697,22.471698 9.1499009,22.404612 l -0.091014,-0.121979 -0.2072657,0.158236 c -0.2863841,0.218629 -0.9946286,0.837819 -1.2903803,1.128136 -0.2451254,0.240624 -0.5919994,0.602006 -0.6245861,0.65072 -0.020763,0.03104 0.7360075,0.478611 1.1795824,0.697638 1.4347069,0.708427 3.0508233,1.105915 4.6311423,1.139048 0.214263,0.0045 0.393491,0.0076 0.398268,0.007 0.0047,-6.47e-4 -0.06706,-0.0519 -0.159632,-0.113869 z m 5.727772,-1.481601 c 1.249298,-0.733726 2.468491,-1.875065 3.355189,-3.14093 0.183222,-0.261571 0.776393,-1.256245 0.794796,-1.332777 0.0097,-0.04041 -0.06192,-0.06816 -0.485131,-0.187938 -0.521487,-0.147599 -1.626159,-0.38142 -2.06536,-0.437168 l -0.258464,-0.0328 -0.01783,0.151142 c -0.0098,0.08313 -0.05532,0.366725 -0.101147,0.630212 -0.25629,1.473701 -0.728983,2.895693 -1.448705,4.358109 -0.04928,0.100125 -0.07617,0.173224 -0.05978,0.162456 0.01638,-0.01081 0.145289,-0.08741 0.286434,-0.170298 z M 6.2800814,23.284807 c 0.5392479,-0.575024 1.228286,-1.206321 1.8177879,-1.665464 0.1644593,-0.12809 0.3017093,-0.235671 0.3049888,-0.239067 0.00336,-0.0034 -0.088288,-0.159565 -0.203502,-0.347037 -0.6795308,-1.105789 -1.1203095,-2.0652 -1.6176803,-3.521125 l -0.070761,-0.207021 -2.0225985,0.541953 -2.0226129,0.541958 0.057962,0.158798 c 0.4600729,1.260293 0.9110603,2.119998 1.6021157,3.054018 0.235208,0.317917 0.7676156,0.932781 1.0605032,1.224762 0.2788277,0.277968 0.7996534,0.740049 0.8261301,0.732955 0.00742,-0.002 0.1277764,-0.12559 0.2676385,-0.274722 z M 23.45983,18.585646 c 0.366563,-1.066511 0.574593,-2.228236 0.596029,-3.32845 0.01601,-0.821775 -0.03935,-1.464764 -0.208618,-2.423029 l -0.0294,-0.166451 -2.02477,0.542536 c -1.113623,0.298394 -2.022544,0.550842 -2.019818,0.561013 0.0288,0.107504 0.174761,0.881219 0.219045,1.161166 0.148757,0.94034 0.211011,1.955935 0.18008,2.937855 -0.0061,0.194069 -0.0069,0.354206 -0.0017,0.355867 0.0051,0.0016 0.178381,0.02648 0.384931,0.05517 0.746313,0.103657 1.842223,0.350714 2.528785,0.570077 0.124276,0.03971 0.235556,0.0661 0.247289,0.05864 0.01172,-0.0075 0.06941,-0.153432 0.128174,-0.324404 z M 9.6710169,20.522593 C 10.731448,19.872606 11.98193,19.294889 13.129214,18.924924 l 0.326302,-0.105229 -0.421925,-1.574644 -0.421926,-1.57465 -2.509294,0.672364 -2.5092933,0.672363 0.098784,0.302819 c 0.3403325,1.04332 0.8616089,2.164205 1.4473581,3.112181 0.1670326,0.270332 0.1932868,0.302065 0.2303418,0.278358 0.023029,-0.01466 0.1586629,-0.09837 0.3014549,-0.185893 z M 19.05949,17.771484 c 0.03443,-1.104199 -0.07356,-2.313773 -0.306255,-3.430337 l -0.06245,-0.299641 -2.509439,0.672403 -2.509442,0.672402 0.421926,1.57465 0.421926,1.574649 0.3352,-0.07202 c 1.006861,-0.216346 2.089859,-0.334095 3.174577,-0.345144 0.329688,-0.0034 0.687875,-0.0013 0.79597,0.0045 0.108093,0.0058 0.203347,0.0097 0.211675,0.0086 0.0083,-9.89e-4 0.02016,-0.163105 0.02631,-0.360064 z M 6.2255633,16.187079 C 6.2255617,16.15512 6.2081005,16.06319 6.1867566,15.982792 6.1331741,15.782819 6.0189388,15.098793 5.9673581,14.674394 5.8712938,13.884091 5.8313884,12.95022 5.8606653,12.177821 l 0.015252,-0.402656 -0.3092166,-0.04051 c -0.731256,-0.0958 -1.7502876,-0.318874 -2.5324327,-0.554376 -0.1970325,-0.05932 -0.3666423,-0.09893 -0.3769269,-0.08801 -0.027022,0.02868 -0.2469971,0.695439 -0.3342729,1.013151 -0.1191853,0.433889 -0.2563083,1.152163 -0.3106195,1.627137 -0.131226,1.147418 -0.091586,2.119899 0.1397906,3.429746 l 0.029459,0.166435 2.0219566,-0.541782 2.0219566,-0.541781 z m 5.6800417,-3.15173 -0.421969,-1.57481 -0.335789,0.07213 c -1.1764254,0.252692 -2.5456968,0.377088 -3.8003822,0.345247 -0.1713713,-0.0044 -0.3235239,-0.0047 -0.3381032,-8.1e-4 -0.01458,0.0039 -0.031614,0.191516 -0.037839,0.416905 -0.032296,1.16804 0.05891,2.235162 0.2923985,3.421136 l 0.047103,0.239188 2.5082656,-0.672088 2.5082819,-0.672092 z m 6.41615,-0.296046 c -0.230049,-0.68121 -0.591876,-1.531972 -0.909627,-2.138757 -0.314821,-0.6011904 -0.743745,-1.311563 -0.785212,-1.3004519 -0.01454,0.0039 -0.146086,0.080265 -0.292327,0.1697126 -1.091291,0.6674503 -2.291045,1.2219823 -3.463897,1.6010253 l -0.326813,0.105624 0.421969,1.574811 0.421969,1.57481 2.50796,-0.672006 2.507958,-0.672005 z m 5.15423,-1.290682 C 23.316451,11.009869 23.151825,10.602492 23.016921,10.312587 22.376495,8.9363357 21.466484,7.7219861 20.312832,6.7041583 20.155091,6.5649875 20.015093,6.4478356 20.001726,6.4438212 c -0.01336,-0.00401 -0.139641,0.1153376 -0.280611,0.2652307 -0.559609,0.5950243 -1.330576,1.2977297 -1.915967,1.7463209 l -0.247535,0.1896895 0.214544,0.3410821 c 0.411552,0.6542785 0.843922,1.4829896 1.155887,2.2154416 0.16753,0.393331 0.410165,1.042951 0.464197,1.242803 0.02167,0.08031 0.05254,0.168648 0.06853,0.196324 l 0.02905,0.05033 2.021959,-0.541783 2.02196,-0.541782 z M 9.5978915,4.4725397 C 9.553604,4.4469678 9.4486293,4.5816961 9.182854,5.0052189 8.2988668,6.4138826 7.6275207,8.0782046 7.2844731,9.7114517 7.1996225,10.115419 7.0974522,10.705535 7.1065079,10.739331 c 0.012122,0.04524 1.2096364,0.03582 1.8371231,-0.01446 0.6512834,-0.05218 1.514599,-0.179995 2.116861,-0.313401 l 0.12188,-0.02707 -0.784287,-2.9513382 C 9.9666651,5.8098444 9.6066218,4.4775657 9.597862,4.4724761 Z M 12.87101,9.8912959 C 13.569767,9.6475053 14.454137,9.2529224 15.108661,8.8929152 15.542842,8.6541037 15.980182,8.3864316 15.973983,8.363298 15.964928,8.3295051 15.581385,7.8695326 15.30592,7.5621115 14.227961,6.3591052 12.78772,5.2212458 11.43243,4.5018681 10.83433,4.1844011 10.770283,4.1544964 10.718312,4.1684219 c -0.04864,0.013034 -0.04734,0.018235 0.74378,2.9709022 l 0.792526,2.9578399 0.136982,-0.04312 c 0.07534,-0.02371 0.291065,-0.096968 0.479423,-0.1626772 z M 6.037794,10.323133 C 6.2793792,8.7292581 6.9108308,6.8040646 7.6203576,5.4981245 L 7.7453448,5.2680888 7.6658219,5.3086377 C 7.4624665,5.4123269 6.8893497,5.7705621 6.6150561,5.965442 5.5023105,6.7559957 4.5575483,7.7278209 3.8109633,8.8498621 3.5177048,9.2905976 3.1032871,10.026099 3.1376515,10.044847 c 0.1018241,0.05556 1.0796877,0.306395 1.6076143,0.412378 0.5923506,0.118911 1.1605667,0.212744 1.2170891,0.200976 0.014028,-0.003 0.047941,-0.153694 0.075439,-0.335068 z M 17.197844,7.515275 C 17.606306,7.198057 18.321496,6.5527316 18.717422,6.144144 19.020071,5.831815 19.071354,5.7681021 19.043608,5.7388932 18.988955,5.6813619 17.974097,5.1153231 17.689843,4.9838323 16.486028,4.4269657 15.30319,4.1051164 14.012652,3.9832714 13.677665,3.9516446 13.002249,3.9279557 12.774256,3.9398366 l -0.08915,0.00465 0.216349,0.1327326 c 1.284129,0.7878249 2.775682,2.1227862 3.789286,3.3914686 0.114506,0.1433232 0.216219,0.2584374 0.226026,0.2558096 0.0098,-0.00263 0.13629,-0.096771 0.281074,-0.2092185 z"
     id="path91" />
</svg>
