<?xml version="1.0" encoding="UTF-8" standalone="no"?>
<svg
   width="26"
   height="30"
   viewBox="0 0 26 30"
   version="1.1"
   id="svg5"
   sodipodi:docname="website.svg"
   inkscape:version="1.1.2 (0a00cf5339, 2022-02-04)"
   xmlns:inkscape="http://www.inkscape.org/namespaces/inkscape"
   xmlns:sodipodi="http://sodipodi.sourceforge.net/DTD/sodipodi-0.dtd"
   xmlns="http://www.w3.org/2000/svg"
   xmlns:svg="http://www.w3.org/2000/svg">
  <defs
     id="defs9" />
  <sodipodi:namedview
     id="namedview7"
     pagecolor="#ffffff"
     bordercolor="#999999"
     borderopacity="1"
     inkscape:pageshadow="0"
     inkscape:pageopacity="0"
     inkscape:pagecheckerboard="0"
     showgrid="false"
     inkscape:zoom="6.4228865"
     inkscape:cx="13.000385"
     inkscape:cy="19.695195"
     inkscape:window-width="1356"
     inkscape:window-height="701"
     inkscape:window-x="0"
     inkscape:window-y="31"
     inkscape:window-maximized="1"
     inkscape:current-layer="svg5" />
  <path
     style="fill:#ffffff;stroke-width:0.053282"
     d="M 11.265302,28.556698 C 10.376881,28.396266 9.6624673,28.117029 8.9559312,27.654048 8.5648719,27.397792 8.0359209,26.891825 5.6782135,24.518743 2.7169045,21.538126 2.4894555,21.277845 2.10079,20.424979 1.6663626,19.471689 1.5146357,18.629603 1.5509126,17.373149 1.5803383,16.353962 1.6959259,15.787093 2.0328479,15.00962 2.4816745,13.973918 2.3239801,14.145187 8.8009826,7.6588278 12.133447,4.3215521 14.879579,1.6132484 15.008999,1.5363355 c 0.314516,-0.1869196 0.885278,-0.2278127 1.292382,-0.092595 0.404517,0.1343609 0.85883,0.5930354 0.975062,0.9844246 0.116874,0.3935661 0.104341,0.770268 -0.03688,1.1081428 -0.09814,0.2348033 -0.368078,0.5384585 -1.586797,1.7849511 l -1.468548,1.5020182 0.553074,0.1804642 c 0.558994,0.1824032 1.181912,0.5180733 1.686059,0.9085702 0.14944,0.1157482 1.019342,0.9610656 1.933118,1.8784817 1.852527,1.8599057 1.933635,1.9679727 1.934614,2.5776587 7.93e-4,0.487287 -0.128532,0.799146 -0.475071,1.145685 -0.346538,0.346543 -0.658397,0.475855 -1.145685,0.475071 -0.584328,-7.93e-4 -0.690734,-0.07972 -2.608484,-1.931414 -1.86833,-1.80398 -2.035745,-1.932497 -2.729053,-2.0949628 -0.27298,-0.063976 -0.53192,-0.079688 -1.006872,-0.061122 -0.702939,0.027475 -1.078402,0.1289048 -1.514241,0.4090658 -0.13424,0.08629 -1.4341863,1.36606 -2.8887704,2.84393 -2.4554935,2.494805 -2.6585288,2.715136 -2.8380179,3.079767 -0.259231,0.526631 -0.3711718,1.074185 -0.3286268,1.607473 0.039628,0.49672 0.2198395,1.090494 0.4339381,1.429768 0.085663,0.135748 1.3665887,1.469555 2.8465016,2.964016 2.5227564,2.547554 2.7137054,2.727991 3.0584144,2.89006 0.542079,0.25486 1.200714,0.354252 1.826681,0.275649 0.544224,-0.06834 0.945899,-0.201227 1.27509,-0.421853 0.120574,-0.08081 0.983742,-0.884903 1.918158,-1.786879 1.103971,-1.06564 1.782905,-1.6814 1.938709,-1.758309 0.183248,-0.09046 0.333973,-0.118361 0.639385,-0.118361 0.651474,0 1.135142,0.2981 1.450442,0.893958 0.178875,0.338034 0.17292,1.0356 -0.01182,1.384712 -0.152998,0.289122 -3.324413,3.508775 -3.832197,3.890481 -0.673996,0.506653 -1.653453,0.912709 -2.599499,1.077686 -0.573499,0.100013 -1.864909,0.09674 -2.434779,-0.0062 z M 10.96724,19.142002 c -0.102572,-0.03219 -0.322223,-0.193517 -0.488123,-0.358537 -0.230399,-0.229177 -0.32163,-0.367361 -0.386295,-0.585114 -0.2303083,-0.775529 0.07003,-1.55619 0.733284,-1.906 l 0.27434,-0.144694 6.017484,-0.01424 c 6.80509,-0.01606 6.387986,-0.03996 6.850056,0.39225 0.326696,0.305586 0.482783,0.66094 0.486204,1.106921 0.0016,0.185378 -0.02657,0.434317 -0.06217,0.553202 -0.100708,0.336134 -0.412456,0.707043 -0.736592,0.876373 l -0.285601,0.149203 -6.108048,-0.0055 c -4.272408,-0.004 -6.164091,-0.02304 -6.294535,-0.06394 z"
     id="path228" />
</svg>
